<svg xmlns="http://www.w3.org/2000/svg" xmlns:xlink="http://www.w3.org/1999/xlink" width="2021.985" height="126.429" viewBox="0 0 2021.985 126.429">
  <defs>
    <clipPath id="clip-path">
      <rect id="Rectangle_232" data-name="Rectangle 232" width="2021.265" height="55.922" fill="none"/>
    </clipPath>
  </defs>
  <g id="Group_121" data-name="Group 121" transform="matrix(0.999, -0.035, 0.035, 0.999, 0, 70.541)">
    <rect id="Rectangle_231" data-name="Rectangle 231" width="2021.265" height="55.922" transform="translate(0 0)" fill="#db005b"/>
    <text id="OPENING" transform="translate(15.537 24.983)" fill="#161615" font-size="14" font-family="TTTravelsNext-Bd, TT Travels Next"><tspan x="0" y="0">OPENING</tspan></text>
    <text id="SOON" transform="translate(35.083 39.959)" fill="#161615" font-size="14" font-family="TTTravelsNext-Bd, TT Travels Next"><tspan x="0" y="0">SOON</tspan></text>
    <g id="Group_66" data-name="Group 66">
      <g id="Group_65" data-name="Group 65" clip-path="url(#clip-path)">
        <path id="Path_28" data-name="Path 28" d="M0,24.7A4.694,4.694,0,0,1,5.031,19.96c3.052,0,5.073,2.021,5.073,4.743s-2.021,4.743-5.073,4.743A4.694,4.694,0,0,1,0,24.7m1.732-6.392-1.608-8V0h9.9V10.31l-1.608,8Z" transform="translate(126.716 13.422)" fill="#161615"/>
        <path id="Path_29" data-name="Path 29" d="M0,24.7A4.694,4.694,0,0,1,5.031,19.96c3.052,0,5.073,2.021,5.073,4.743s-2.021,4.743-5.073,4.743A4.694,4.694,0,0,1,0,24.7m1.732-6.392-1.608-8V0h9.9V10.31l-1.608,8Z" transform="translate(140.531 13.422)" fill="#161615"/>
        <path id="Path_30" data-name="Path 30" d="M0,24.7A4.694,4.694,0,0,1,5.031,19.96c3.052,0,5.073,2.021,5.073,4.743s-2.021,4.743-5.073,4.743A4.694,4.694,0,0,1,0,24.7m1.732-6.392-1.608-8V0h9.9V10.31l-1.608,8Z" transform="translate(154.346 13.422)" fill="#161615"/>
      </g>
    </g>
    <text id="OPENING-2" data-name="OPENING" transform="translate(172.819 24.983)" fill="#161615" font-size="14" font-family="TTTravelsNext-Bd, TT Travels Next"><tspan x="0" y="0">OPENING</tspan></text>
    <text id="SOON-2" data-name="SOON" transform="translate(192.364 39.959)" fill="#161615" font-size="14" font-family="TTTravelsNext-Bd, TT Travels Next"><tspan x="0" y="0">SOON</tspan></text>
    <g id="Group_68" data-name="Group 68">
      <g id="Group_67" data-name="Group 67" clip-path="url(#clip-path)">
        <path id="Path_31" data-name="Path 31" d="M0,24.7A4.694,4.694,0,0,1,5.031,19.96c3.052,0,5.072,2.021,5.072,4.743s-2.021,4.743-5.072,4.743A4.694,4.694,0,0,1,0,24.7m1.732-6.392-1.608-8V0h9.9V10.31l-1.608,8Z" transform="translate(283.998 13.422)" fill="#161615"/>
        <path id="Path_32" data-name="Path 32" d="M0,24.7A4.694,4.694,0,0,1,5.031,19.96c3.052,0,5.073,2.021,5.073,4.743s-2.021,4.743-5.073,4.743A4.694,4.694,0,0,1,0,24.7m1.732-6.392-1.608-8V0h9.9V10.31l-1.608,8Z" transform="translate(297.813 13.422)" fill="#161615"/>
        <path id="Path_33" data-name="Path 33" d="M0,24.7A4.694,4.694,0,0,1,5.031,19.96c3.052,0,5.073,2.021,5.073,4.743s-2.021,4.743-5.073,4.743A4.694,4.694,0,0,1,0,24.7m1.732-6.392-1.608-8V0h9.9V10.31l-1.608,8Z" transform="translate(311.628 13.422)" fill="#161615"/>
      </g>
    </g>
    <text id="OPENING-3" data-name="OPENING" transform="translate(330.1 24.983)" fill="#161615" font-size="14" font-family="TTTravelsNext-Bd, TT Travels Next"><tspan x="0" y="0">OPENING</tspan></text>
    <text id="SOON-3" data-name="SOON" transform="translate(349.646 39.959)" fill="#161615" font-size="14" font-family="TTTravelsNext-Bd, TT Travels Next"><tspan x="0" y="0">SOON</tspan></text>
    <g id="Group_70" data-name="Group 70">
      <g id="Group_69" data-name="Group 69" clip-path="url(#clip-path)">
        <path id="Path_34" data-name="Path 34" d="M0,24.7A4.694,4.694,0,0,1,5.031,19.96c3.052,0,5.073,2.021,5.073,4.743s-2.021,4.743-5.073,4.743A4.694,4.694,0,0,1,0,24.7m1.732-6.392-1.608-8V0h9.9V10.31l-1.608,8Z" transform="translate(441.279 13.422)" fill="#161615"/>
        <path id="Path_35" data-name="Path 35" d="M0,24.7A4.694,4.694,0,0,1,5.031,19.96c3.052,0,5.073,2.021,5.073,4.743s-2.021,4.743-5.073,4.743A4.694,4.694,0,0,1,0,24.7m1.732-6.392-1.608-8V0h9.9V10.31l-1.608,8Z" transform="translate(455.094 13.422)" fill="#161615"/>
        <path id="Path_36" data-name="Path 36" d="M0,24.7A4.694,4.694,0,0,1,5.031,19.96c3.052,0,5.073,2.021,5.073,4.743s-2.021,4.743-5.073,4.743A4.694,4.694,0,0,1,0,24.7m1.732-6.392-1.608-8V0h9.9V10.31l-1.608,8Z" transform="translate(468.909 13.422)" fill="#161615"/>
      </g>
    </g>
    <text id="OPENING-4" data-name="OPENING" transform="translate(487.382 24.983)" fill="#161615" font-size="14" font-family="TTTravelsNext-Bd, TT Travels Next"><tspan x="0" y="0">OPENING</tspan></text>
    <text id="SOON-4" data-name="SOON" transform="translate(506.928 39.959)" fill="#161615" font-size="14" font-family="TTTravelsNext-Bd, TT Travels Next"><tspan x="0" y="0">SOON</tspan></text>
    <g id="Group_72" data-name="Group 72">
      <g id="Group_71" data-name="Group 71" clip-path="url(#clip-path)">
        <path id="Path_37" data-name="Path 37" d="M0,24.7A4.694,4.694,0,0,1,5.031,19.96c3.052,0,5.073,2.021,5.073,4.743s-2.021,4.743-5.073,4.743A4.694,4.694,0,0,1,0,24.7m1.732-6.392-1.609-8V0h9.9V10.31l-1.608,8Z" transform="translate(598.561 13.422)" fill="#161615"/>
        <path id="Path_38" data-name="Path 38" d="M0,24.7A4.694,4.694,0,0,1,5.031,19.96c3.052,0,5.073,2.021,5.073,4.743s-2.021,4.743-5.073,4.743A4.694,4.694,0,0,1,0,24.7m1.732-6.392-1.608-8V0h9.9V10.31l-1.608,8Z" transform="translate(612.376 13.422)" fill="#161615"/>
        <path id="Path_39" data-name="Path 39" d="M0,24.7A4.694,4.694,0,0,1,5.031,19.96c3.052,0,5.073,2.021,5.073,4.743s-2.021,4.743-5.073,4.743A4.694,4.694,0,0,1,0,24.7m1.732-6.392-1.609-8V0h9.9V10.31l-1.608,8Z" transform="translate(626.191 13.422)" fill="#161615"/>
      </g>
    </g>
    <text id="OPENING-5" data-name="OPENING" transform="translate(644.664 24.983)" fill="#161615" font-size="14" font-family="TTTravelsNext-Bd, TT Travels Next"><tspan x="0" y="0">OPENING</tspan></text>
    <text id="SOON-5" data-name="SOON" transform="translate(664.209 39.959)" fill="#161615" font-size="14" font-family="TTTravelsNext-Bd, TT Travels Next"><tspan x="0" y="0">SOON</tspan></text>
    <g id="Group_74" data-name="Group 74">
      <g id="Group_73" data-name="Group 73" clip-path="url(#clip-path)">
        <path id="Path_40" data-name="Path 40" d="M0,24.7A4.694,4.694,0,0,1,5.031,19.96c3.052,0,5.073,2.021,5.073,4.743s-2.021,4.743-5.073,4.743A4.694,4.694,0,0,1,0,24.7m1.732-6.392-1.609-8V0h9.9V10.31l-1.608,8Z" transform="translate(755.843 13.422)" fill="#161615"/>
        <path id="Path_41" data-name="Path 41" d="M0,24.7A4.694,4.694,0,0,1,5.031,19.96c3.052,0,5.073,2.021,5.073,4.743s-2.021,4.743-5.073,4.743A4.694,4.694,0,0,1,0,24.7m1.732-6.392-1.608-8V0h9.9V10.31l-1.608,8Z" transform="translate(769.658 13.422)" fill="#161615"/>
        <path id="Path_42" data-name="Path 42" d="M0,24.7A4.694,4.694,0,0,1,5.031,19.96c3.052,0,5.073,2.021,5.073,4.743s-2.021,4.743-5.073,4.743A4.694,4.694,0,0,1,0,24.7m1.732-6.392-1.609-8V0h9.9V10.31l-1.608,8Z" transform="translate(783.473 13.422)" fill="#161615"/>
      </g>
    </g>
    <text id="OPENING-6" data-name="OPENING" transform="translate(801.946 24.983)" fill="#161615" font-size="14" font-family="TTTravelsNext-Bd, TT Travels Next"><tspan x="0" y="0">OPENING</tspan></text>
    <text id="SOON-6" data-name="SOON" transform="translate(821.491 39.959)" fill="#161615" font-size="14" font-family="TTTravelsNext-Bd, TT Travels Next"><tspan x="0" y="0">SOON</tspan></text>
    <g id="Group_76" data-name="Group 76">
      <g id="Group_75" data-name="Group 75" clip-path="url(#clip-path)">
        <path id="Path_43" data-name="Path 43" d="M0,24.7A4.694,4.694,0,0,1,5.031,19.96c3.052,0,5.073,2.021,5.073,4.743s-2.021,4.743-5.073,4.743A4.694,4.694,0,0,1,0,24.7m1.732-6.392-1.608-8V0h9.9V10.31l-1.608,8Z" transform="translate(913.125 13.422)" fill="#161615"/>
        <path id="Path_44" data-name="Path 44" d="M0,24.7A4.694,4.694,0,0,1,5.031,19.96c3.052,0,5.073,2.021,5.073,4.743s-2.021,4.743-5.073,4.743A4.694,4.694,0,0,1,0,24.7m1.732-6.392-1.608-8V0h9.9V10.31l-1.608,8Z" transform="translate(926.94 13.422)" fill="#161615"/>
        <path id="Path_45" data-name="Path 45" d="M0,24.7A4.694,4.694,0,0,1,5.031,19.96c3.052,0,5.073,2.021,5.073,4.743s-2.021,4.743-5.073,4.743A4.694,4.694,0,0,1,0,24.7m1.732-6.392-1.608-8V0h9.9V10.31l-1.609,8Z" transform="translate(940.755 13.422)" fill="#161615"/>
      </g>
    </g>
    <text id="OPENING-7" data-name="OPENING" transform="translate(959.227 24.983)" fill="#161615" font-size="14" font-family="TTTravelsNext-Bd, TT Travels Next"><tspan x="0" y="0">OPENING</tspan></text>
    <text id="SOON-7" data-name="SOON" transform="translate(978.773 39.959)" fill="#161615" font-size="14" font-family="TTTravelsNext-Bd, TT Travels Next"><tspan x="0" y="0">SOON</tspan></text>
    <g id="Group_78" data-name="Group 78">
      <g id="Group_77" data-name="Group 77" clip-path="url(#clip-path)">
        <path id="Path_46" data-name="Path 46" d="M0,24.7A4.694,4.694,0,0,1,5.031,19.96c3.052,0,5.073,2.021,5.073,4.743s-2.021,4.743-5.073,4.743A4.694,4.694,0,0,1,0,24.7m1.732-6.392-1.608-8V0h9.9V10.31l-1.609,8Z" transform="translate(1070.406 13.422)" fill="#161615"/>
        <path id="Path_47" data-name="Path 47" d="M0,24.7A4.694,4.694,0,0,1,5.031,19.96c3.052,0,5.073,2.021,5.073,4.743s-2.021,4.743-5.073,4.743A4.694,4.694,0,0,1,0,24.7m1.732-6.392-1.609-8V0h9.9V10.31l-1.609,8Z" transform="translate(1084.221 13.422)" fill="#161615"/>
        <path id="Path_48" data-name="Path 48" d="M0,24.7A4.694,4.694,0,0,1,5.031,19.96c3.052,0,5.073,2.021,5.073,4.743s-2.021,4.743-5.073,4.743A4.694,4.694,0,0,1,0,24.7m1.732-6.392-1.608-8V0h9.9V10.31l-1.608,8Z" transform="translate(1098.036 13.422)" fill="#161615"/>
      </g>
    </g>
    <text id="OPENING-8" data-name="OPENING" transform="translate(1116.509 24.983)" fill="#161615" font-size="14" font-family="TTTravelsNext-Bd, TT Travels Next"><tspan x="0" y="0">OPENING</tspan></text>
    <text id="SOON-8" data-name="SOON" transform="translate(1136.055 39.959)" fill="#161615" font-size="14" font-family="TTTravelsNext-Bd, TT Travels Next"><tspan x="0" y="0">SOON</tspan></text>
    <g id="Group_80" data-name="Group 80">
      <g id="Group_79" data-name="Group 79" clip-path="url(#clip-path)">
        <path id="Path_49" data-name="Path 49" d="M0,24.7A4.694,4.694,0,0,1,5.031,19.96c3.052,0,5.073,2.021,5.073,4.743s-2.021,4.743-5.073,4.743A4.694,4.694,0,0,1,0,24.7m1.732-6.392-1.608-8V0h9.9V10.31l-1.608,8Z" transform="translate(1227.688 13.422)" fill="#161615"/>
        <path id="Path_50" data-name="Path 50" d="M0,24.7A4.7,4.7,0,0,1,5.032,19.96c3.052,0,5.072,2.021,5.072,4.743s-2.021,4.743-5.072,4.743A4.694,4.694,0,0,1,0,24.7m1.732-6.392-1.609-8V0h9.9V10.31l-1.608,8Z" transform="translate(1241.503 13.422)" fill="#161615"/>
        <path id="Path_51" data-name="Path 51" d="M0,24.7A4.7,4.7,0,0,1,5.032,19.96c3.052,0,5.072,2.021,5.072,4.743s-2.021,4.743-5.072,4.743A4.7,4.7,0,0,1,0,24.7m1.732-6.392-1.609-8V0h9.9V10.31l-1.608,8Z" transform="translate(1255.318 13.422)" fill="#161615"/>
      </g>
    </g>
    <text id="OPENING-9" data-name="OPENING" transform="translate(1273.791 24.983)" fill="#161615" font-size="14" font-family="TTTravelsNext-Bd, TT Travels Next"><tspan x="0" y="0">OPENING</tspan></text>
    <text id="SOON-9" data-name="SOON" transform="translate(1293.336 39.959)" fill="#161615" font-size="14" font-family="TTTravelsNext-Bd, TT Travels Next"><tspan x="0" y="0">SOON</tspan></text>
    <g id="Group_82" data-name="Group 82">
      <g id="Group_81" data-name="Group 81" clip-path="url(#clip-path)">
        <path id="Path_52" data-name="Path 52" d="M0,24.7A4.694,4.694,0,0,1,5.031,19.96c3.052,0,5.073,2.021,5.073,4.743s-2.021,4.743-5.073,4.743A4.694,4.694,0,0,1,0,24.7m1.732-6.392-1.608-8V0h9.9V10.31l-1.608,8Z" transform="translate(1384.969 13.422)" fill="#161615"/>
        <path id="Path_53" data-name="Path 53" d="M0,24.7A4.694,4.694,0,0,1,5.031,19.96c3.052,0,5.072,2.021,5.072,4.743s-2.021,4.743-5.072,4.743A4.694,4.694,0,0,1,0,24.7m1.732-6.392-1.608-8V0h9.9V10.31l-1.609,8Z" transform="translate(1398.785 13.422)" fill="#161615"/>
        <path id="Path_54" data-name="Path 54" d="M0,24.7A4.694,4.694,0,0,1,5.031,19.96c3.052,0,5.073,2.021,5.073,4.743s-2.021,4.743-5.073,4.743A4.694,4.694,0,0,1,0,24.7m1.732-6.392-1.608-8V0h9.9V10.31l-1.609,8Z" transform="translate(1412.6 13.422)" fill="#161615"/>
      </g>
    </g>
    <text id="OPENING-10" data-name="OPENING" transform="translate(1431.073 24.983)" fill="#161615" font-size="14" font-family="TTTravelsNext-Bd, TT Travels Next"><tspan x="0" y="0">OPENING</tspan></text>
    <text id="SOON-10" data-name="SOON" transform="translate(1450.618 39.959)" fill="#161615" font-size="14" font-family="TTTravelsNext-Bd, TT Travels Next"><tspan x="0" y="0">SOON</tspan></text>
    <g id="Group_84" data-name="Group 84">
      <g id="Group_83" data-name="Group 83" clip-path="url(#clip-path)">
        <path id="Path_55" data-name="Path 55" d="M0,24.7A4.694,4.694,0,0,1,5.031,19.96c3.052,0,5.072,2.021,5.072,4.743s-2.021,4.743-5.072,4.743A4.694,4.694,0,0,1,0,24.7m1.732-6.392-1.608-8V0h9.9V10.31l-1.608,8Z" transform="translate(1542.252 13.422)" fill="#161615"/>
        <path id="Path_56" data-name="Path 56" d="M0,24.7A4.694,4.694,0,0,1,5.031,19.96c3.052,0,5.073,2.021,5.073,4.743s-2.021,4.743-5.073,4.743A4.694,4.694,0,0,1,0,24.7m1.732-6.392-1.608-8V0h9.9V10.31l-1.608,8Z" transform="translate(1556.066 13.422)" fill="#161615"/>
        <path id="Path_57" data-name="Path 57" d="M0,24.7A4.694,4.694,0,0,1,5.031,19.96c3.052,0,5.073,2.021,5.073,4.743s-2.021,4.743-5.073,4.743A4.694,4.694,0,0,1,0,24.7m1.732-6.392-1.608-8V0h9.9V10.31l-1.608,8Z" transform="translate(1569.881 13.422)" fill="#161615"/>
      </g>
    </g>
    <text id="OPENING-11" data-name="OPENING" transform="translate(1588.354 24.983)" fill="#161615" font-size="14" font-family="TTTravelsNext-Bd, TT Travels Next"><tspan x="0" y="0">OPENING</tspan></text>
    <text id="SOON-11" data-name="SOON" transform="translate(1607.9 39.959)" fill="#161615" font-size="14" font-family="TTTravelsNext-Bd, TT Travels Next"><tspan x="0" y="0">SOON</tspan></text>
    <g id="Group_86" data-name="Group 86">
      <g id="Group_85" data-name="Group 85" clip-path="url(#clip-path)">
        <path id="Path_58" data-name="Path 58" d="M0,24.7A4.694,4.694,0,0,1,5.031,19.96c3.052,0,5.073,2.021,5.073,4.743s-2.021,4.743-5.073,4.743A4.694,4.694,0,0,1,0,24.7m1.732-6.392-1.608-8V0h9.9V10.31l-1.608,8Z" transform="translate(1699.533 13.422)" fill="#161615"/>
        <path id="Path_59" data-name="Path 59" d="M0,24.7A4.694,4.694,0,0,1,5.031,19.96c3.052,0,5.072,2.021,5.072,4.743s-2.021,4.743-5.072,4.743A4.694,4.694,0,0,1,0,24.7m1.731-6.392-1.608-8V0h9.9V10.31l-1.608,8Z" transform="translate(1713.348 13.422)" fill="#161615"/>
        <path id="Path_60" data-name="Path 60" d="M0,24.7A4.694,4.694,0,0,1,5.031,19.96c3.052,0,5.073,2.021,5.073,4.743s-2.021,4.743-5.073,4.743A4.694,4.694,0,0,1,0,24.7m1.732-6.392-1.608-8V0h9.9V10.31l-1.609,8Z" transform="translate(1727.163 13.422)" fill="#161615"/>
      </g>
    </g>
    <text id="OPENING-12" data-name="OPENING" transform="translate(1745.636 24.983)" fill="#161615" font-size="14" font-family="TTTravelsNext-Bd, TT Travels Next"><tspan x="0" y="0">OPENING</tspan></text>
    <text id="SOON-12" data-name="SOON" transform="translate(1765.182 39.959)" fill="#161615" font-size="14" font-family="TTTravelsNext-Bd, TT Travels Next"><tspan x="0" y="0">SOON</tspan></text>
    <g id="Group_88" data-name="Group 88">
      <g id="Group_87" data-name="Group 87" clip-path="url(#clip-path)">
        <path id="Path_61" data-name="Path 61" d="M0,24.7A4.694,4.694,0,0,1,5.031,19.96c3.052,0,5.073,2.021,5.073,4.743s-2.021,4.743-5.073,4.743A4.694,4.694,0,0,1,0,24.7m1.732-6.392-1.608-8V0h9.9V10.31l-1.608,8Z" transform="translate(1856.815 13.422)" fill="#161615"/>
        <path id="Path_62" data-name="Path 62" d="M0,24.7A4.694,4.694,0,0,1,5.031,19.96c3.052,0,5.073,2.021,5.073,4.743s-2.021,4.743-5.073,4.743A4.694,4.694,0,0,1,0,24.7m1.732-6.392-1.608-8V0h9.9V10.31l-1.609,8Z" transform="translate(1870.63 13.422)" fill="#161615"/>
        <path id="Path_63" data-name="Path 63" d="M0,24.7A4.7,4.7,0,0,1,5.032,19.96c3.051,0,5.072,2.021,5.072,4.743s-2.021,4.743-5.072,4.743A4.694,4.694,0,0,1,0,24.7m1.732-6.392-1.609-8V0h9.9V10.31l-1.608,8Z" transform="translate(1884.445 13.422)" fill="#161615"/>
      </g>
    </g>
    <text id="OPENING-13" data-name="OPENING" transform="translate(1902.918 24.983)" fill="#161615" font-size="14" font-family="TTTravelsNext-Bd, TT Travels Next"><tspan x="0" y="0">OPENING</tspan></text>
    <text id="SOON-13" data-name="SOON" transform="translate(1922.464 39.959)" fill="#161615" font-size="14" font-family="TTTravelsNext-Bd, TT Travels Next"><tspan x="0" y="0">SOON</tspan></text>
  </g>
</svg>
