<svg xmlns="http://www.w3.org/2000/svg" xmlns:xlink="http://www.w3.org/1999/xlink" width="728" height="60" viewBox="0 0 728 60"><defs><clipPath id="a"><rect width="2168.667" height="60" fill="none"/></clipPath><clipPath id="b"><rect width="2168.669" height="60" fill="none"/></clipPath><clipPath id="c"><rect width="314.062" height="37.276" fill="none"/></clipPath><clipPath id="d"><rect width="314.063" height="37.276" fill="none"/></clipPath><clipPath id="f"><rect width="314.061" height="37.276" fill="none"/></clipPath><clipPath id="j"><rect width="728" height="60"/></clipPath></defs><g id="i" clip-path="url(#j)"><rect width="728" height="60" fill="#fff"/><g transform="translate(-15)"><g clip-path="url(#a)"><rect width="2168.669" height="60" transform="translate(0 0)" fill="#db005b"/><g clip-path="url(#b)"><g transform="translate(18.468 11.362)" style="mix-blend-mode:multiply;isolation:isolate"><g clip-path="url(#c)"><path d="M32.943,17.855c6.056.522,9.136,3.863,9.136,8.771,0,6.056-3.863,9.919-13.678,9.919H0V0H28.662c8.458,0,12.112,3.6,12.112,8.719,0,4.438-2.767,7.518-7.831,8.04ZM10.859,8.51v5.8H25.791c2.506,0,3.707-1.149,3.707-2.924,0-1.723-1.2-2.871-3.707-2.871ZM26.835,28.035c2.715,0,3.968-1.253,3.968-3.132,0-1.932-1.253-3.185-3.968-3.185H10.859v6.317Z" transform="translate(0 0)" fill="#161615"/><path d="M0,13.992C0,5.638,5.639,0,14.462,0c7.1,0,11.225,2.715,12.9,7.675h.94l-1.41-7h9.972V27.252H26.887l1.41-6.944h-.94c-1.671,4.908-5.8,7.674-12.9,7.674C5.639,27.983,0,22.293,0,13.992m26.73,0c0-3.446-2.819-6.265-8.405-6.265S9.92,10.546,9.92,13.992c0,3.394,2.819,6.213,8.405,6.213s8.405-2.819,8.405-6.213" transform="translate(45.523 9.293)" fill="#161615"/><path d="M0,27.252V.679H9.919L8.614,7.831h.992C11.12,2.61,14.931,0,20.465,0c7.883,0,12.478,4.542,12.478,14.2v1.1H22.815v-.261c0-4.124-2.349-6.474-6.474-6.474-4.02,0-6.422,2.349-6.422,7V27.252Z" transform="translate(88.75 9.293)" fill="#161615"/><path d="M0,6.364C0,2.683,2.683,0,6.738,0c4.118,0,6.8,2.683,6.8,6.364,0,3.619-2.683,6.364-6.8,6.364C2.683,12.728,0,9.983,0,6.364" transform="translate(123.396 24.548)" fill="#161615"/><path d="M32.943,17.855c6.056.522,9.136,3.863,9.136,8.771,0,6.056-3.863,9.919-13.679,9.919H0V0H28.662c8.458,0,12.112,3.6,12.112,8.719,0,4.438-2.767,7.518-7.831,8.04ZM10.859,8.51v5.8H25.791c2.506,0,3.707-1.149,3.707-2.924,0-1.723-1.2-2.871-3.707-2.871ZM26.835,28.035c2.715,0,3.968-1.253,3.968-3.132,0-1.932-1.253-3.185-3.968-3.185H10.859v6.317Z" transform="translate(141.365 0)" fill="#161615"/><rect width="9.919" height="26.574" transform="translate(187.457 9.972)" fill="#161615"/><path d="M2.976,23.6a8.3,8.3,0,0,1,7.831-8.562V14.1H0V7H5.847c2.3,0,3.237-.888,3.237-3.185V0h8.145V6.578H31.742V14.1H15.3c-1.618.783-2.819,2.349-2.819,5.482,0,3.759,1.879,5.638,5.8,5.638,4.02,0,5.8-1.827,5.8-4.124v-.679h9.972V21.3c0,7.309-4.96,12.269-15.767,12.269s-15.3-4.542-15.3-9.972" transform="translate(201.662 3.707)" fill="#161615"/><path d="M0,13.992C0,6.317,6.317,0,18.273,0,28.923,0,35.762,5.012,36.6,12.06H26.626c-.574-2.193-3.132-4.333-8.353-4.333-5.43,0-8.353,2.923-8.353,6.265,0,3.289,2.924,6.213,8.353,6.213,5.221,0,7.779-2.14,8.353-4.333H36.6c-.835,7.048-7.675,12.112-18.325,12.112C6.317,27.983,0,21.614,0,13.992" transform="translate(238.049 9.293)" fill="#161615"/><path d="M0,36.545V0H9.919V8.144A36.9,36.9,0,0,1,8.51,17.75H9.5c1.566-5.691,5.69-8.458,12.164-8.458,8.719,0,14.1,5.325,14.1,14.3V36.545H25.843v-10.6c0-5.325-2.976-8.3-7.988-8.3-4.959,0-7.935,2.976-7.935,8.3v10.6Z" transform="translate(278.3 0)" fill="#161615"/></g></g><g transform="translate(382.002 11.362)" style="mix-blend-mode:multiply;isolation:isolate"><g clip-path="url(#d)"><path d="M32.943,17.855c6.056.522,9.136,3.863,9.136,8.771,0,6.056-3.863,9.919-13.679,9.919H0V0H28.662c8.458,0,12.112,3.6,12.112,8.719,0,4.438-2.767,7.518-7.831,8.04ZM10.859,8.51v5.8H25.79c2.506,0,3.707-1.149,3.707-2.924,0-1.723-1.2-2.871-3.707-2.871ZM26.835,28.035c2.715,0,3.968-1.253,3.968-3.132,0-1.932-1.253-3.185-3.968-3.185H10.859v6.317Z" transform="translate(0 0)" fill="#161615"/><path d="M0,13.992C0,5.638,5.639,0,14.462,0c7.1,0,11.225,2.715,12.9,7.675h.94l-1.41-7h9.972V27.252H26.887l1.41-6.944h-.94c-1.671,4.908-5.8,7.674-12.9,7.674C5.639,27.983,0,22.293,0,13.992m26.73,0c0-3.446-2.819-6.265-8.405-6.265S9.92,10.546,9.92,13.992c0,3.394,2.819,6.213,8.405,6.213s8.405-2.819,8.405-6.213" transform="translate(45.523 9.293)" fill="#161615"/><path d="M0,27.252V.679H9.919L8.614,7.831h.992C11.12,2.61,14.931,0,20.465,0c7.883,0,12.477,4.542,12.477,14.2v1.1H22.815v-.261c0-4.124-2.349-6.474-6.474-6.474-4.02,0-6.422,2.349-6.422,7V27.252Z" transform="translate(88.749 9.293)" fill="#161615"/><path d="M0,6.364C0,2.683,2.683,0,6.738,0c4.118,0,6.8,2.683,6.8,6.364,0,3.619-2.683,6.364-6.8,6.364C2.683,12.728,0,9.983,0,6.364" transform="translate(123.396 24.548)" fill="#161615"/><path d="M32.943,17.855c6.056.522,9.136,3.863,9.136,8.771,0,6.056-3.863,9.919-13.678,9.919H0V0H28.662C37.12,0,40.774,3.6,40.774,8.719c0,4.438-2.767,7.518-7.831,8.04ZM10.859,8.51v5.8H25.791c2.506,0,3.707-1.149,3.707-2.924,0-1.723-1.2-2.871-3.707-2.871ZM26.835,28.035c2.715,0,3.968-1.253,3.968-3.132,0-1.932-1.253-3.185-3.968-3.185H10.859v6.317Z" transform="translate(141.364 0)" fill="#161615"/><rect width="9.919" height="26.574" transform="translate(187.456 9.972)" fill="#161615"/><path d="M2.976,23.6a8.3,8.3,0,0,1,7.831-8.562V14.1H0V7H5.847c2.3,0,3.237-.888,3.237-3.185V0h8.144V6.578H31.742V14.1H15.3c-1.619.783-2.819,2.349-2.819,5.482,0,3.759,1.88,5.638,5.8,5.638,4.02,0,5.795-1.827,5.795-4.124v-.679h9.972V21.3c0,7.309-4.96,12.269-15.767,12.269s-15.3-4.542-15.3-9.972" transform="translate(201.662 3.707)" fill="#161615"/><path d="M0,13.992C0,6.317,6.317,0,18.273,0,28.923,0,35.762,5.012,36.6,12.06H26.626c-.574-2.193-3.132-4.333-8.353-4.333-5.43,0-8.353,2.923-8.353,6.265,0,3.289,2.924,6.213,8.353,6.213,5.221,0,7.778-2.14,8.353-4.333H36.6c-.836,7.048-7.675,12.112-18.325,12.112C6.317,27.983,0,21.614,0,13.992" transform="translate(238.049 9.293)" fill="#161615"/><path d="M0,36.545V0H9.919V8.144A36.9,36.9,0,0,1,8.51,17.75H9.5c1.566-5.691,5.69-8.458,12.164-8.458,8.719,0,14.1,5.325,14.1,14.3V36.545h-9.92v-10.6c0-5.325-2.976-8.3-7.988-8.3-4.96,0-7.936,2.976-7.936,8.3v10.6Z" transform="translate(278.3 0)" fill="#161615"/></g></g><g transform="translate(745.536 11.362)" style="mix-blend-mode:multiply;isolation:isolate"><g clip-path="url(#d)"><path d="M32.943,17.855c6.056.522,9.136,3.863,9.136,8.771,0,6.056-3.864,9.919-13.679,9.919H0V0H28.662c8.457,0,12.112,3.6,12.112,8.719,0,4.438-2.767,7.518-7.831,8.04ZM10.859,8.51v5.8H25.79c2.506,0,3.707-1.149,3.707-2.924,0-1.723-1.2-2.871-3.707-2.871ZM26.834,28.035c2.715,0,3.968-1.253,3.968-3.132,0-1.932-1.253-3.185-3.968-3.185H10.859v6.317Z" transform="translate(0 0)" fill="#161615"/><path d="M0,13.992C0,5.638,5.639,0,14.462,0c7.1,0,11.225,2.715,12.9,7.675h.94l-1.41-7h9.971V27.252H26.887l1.41-6.944h-.94c-1.67,4.908-5.8,7.674-12.9,7.674C5.639,27.983,0,22.293,0,13.992m26.731,0c0-3.446-2.819-6.265-8.406-6.265S9.92,10.546,9.92,13.992c0,3.394,2.819,6.213,8.405,6.213s8.406-2.819,8.406-6.213" transform="translate(45.524 9.293)" fill="#161615"/><path d="M0,27.252V.679h9.92L8.614,7.831h.992C11.12,2.61,14.931,0,20.465,0c7.883,0,12.478,4.542,12.478,14.2v1.1H22.815v-.261c0-4.124-2.349-6.474-6.474-6.474-4.02,0-6.422,2.349-6.422,7V27.252Z" transform="translate(88.75 9.293)" fill="#161615"/><path d="M0,6.364C0,2.683,2.683,0,6.739,0c4.118,0,6.8,2.683,6.8,6.364,0,3.619-2.683,6.364-6.8,6.364C2.683,12.728,0,9.983,0,6.364" transform="translate(123.397 24.548)" fill="#161615"/><path d="M32.943,17.855c6.056.522,9.136,3.863,9.136,8.771,0,6.056-3.863,9.919-13.678,9.919H0V0H28.661c8.458,0,12.113,3.6,12.113,8.719,0,4.438-2.767,7.518-7.831,8.04ZM10.859,8.51v5.8H25.791c2.506,0,3.707-1.149,3.707-2.924,0-1.723-1.2-2.871-3.707-2.871ZM26.834,28.035c2.715,0,3.968-1.253,3.968-3.132,0-1.932-1.253-3.185-3.968-3.185H10.859v6.317Z" transform="translate(141.365 0)" fill="#161615"/><rect width="9.919" height="26.574" transform="translate(187.457 9.972)" fill="#161615"/><path d="M2.976,23.6a8.3,8.3,0,0,1,7.831-8.562V14.1H0V7H5.847c2.3,0,3.237-.888,3.237-3.185V0h8.145V6.578H31.742V14.1H15.3c-1.618.783-2.819,2.349-2.819,5.482,0,3.759,1.88,5.638,5.8,5.638,4.02,0,5.8-1.827,5.8-4.124v-.679h9.971V21.3c0,7.309-4.96,12.269-15.767,12.269s-15.3-4.542-15.3-9.972" transform="translate(201.663 3.707)" fill="#161615"/><path d="M0,13.992C0,6.317,6.317,0,18.272,0,28.923,0,35.762,5.012,36.6,12.06H26.626c-.574-2.193-3.132-4.333-8.353-4.333-5.429,0-8.353,2.923-8.353,6.265,0,3.289,2.924,6.213,8.353,6.213,5.221,0,7.779-2.14,8.353-4.333H36.6c-.835,7.048-7.674,12.112-18.325,12.112C6.317,27.983,0,21.614,0,13.992" transform="translate(238.05 9.293)" fill="#161615"/><path d="M0,36.545V0H9.919V8.144A36.922,36.922,0,0,1,8.51,17.75H9.5c1.566-5.691,5.69-8.458,12.165-8.458,8.719,0,14.1,5.325,14.1,14.3V36.545h-9.92v-10.6c0-5.325-2.976-8.3-7.987-8.3-4.96,0-7.936,2.976-7.936,8.3v10.6Z" transform="translate(278.301 0)" fill="#161615"/></g></g><g transform="translate(1109.071 11.362)" style="mix-blend-mode:multiply;isolation:isolate"><g clip-path="url(#f)"><path d="M32.943,17.855c6.056.522,9.136,3.863,9.136,8.771,0,6.056-3.863,9.919-13.678,9.919H0V0H28.661c8.458,0,12.112,3.6,12.112,8.719,0,4.438-2.767,7.518-7.831,8.04ZM10.859,8.51v5.8H25.79c2.506,0,3.707-1.149,3.707-2.924,0-1.723-1.2-2.871-3.707-2.871ZM26.835,28.035c2.715,0,3.967-1.253,3.967-3.132,0-1.932-1.253-3.185-3.967-3.185H10.859v6.317Z" transform="translate(-0.001 0)" fill="#161615"/><path d="M0,13.992C0,5.638,5.638,0,14.461,0c7.1,0,11.225,2.715,12.9,7.675h.94l-1.41-7h9.972V27.252H26.887l1.41-6.944h-.94c-1.671,4.908-5.795,7.674-12.9,7.674C5.638,27.983,0,22.293,0,13.992m26.73,0c0-3.446-2.82-6.265-8.406-6.265s-8.406,2.819-8.406,6.265c0,3.394,2.82,6.213,8.406,6.213s8.406-2.819,8.406-6.213" transform="translate(45.522 9.293)" fill="#161615"/><path d="M0,27.252V.679H9.919l-1.3,7.152h.992C11.12,2.61,14.931,0,20.466,0c7.883,0,12.477,4.542,12.477,14.2v1.1H22.814v-.261c0-4.124-2.349-6.474-6.473-6.474-4.02,0-6.422,2.349-6.422,7V27.252Z" transform="translate(88.749 9.293)" fill="#161615"/><path d="M0,6.364C0,2.683,2.683,0,6.739,0c4.117,0,6.8,2.683,6.8,6.364,0,3.619-2.683,6.364-6.8,6.364C2.683,12.728,0,9.983,0,6.364" transform="translate(123.395 24.548)" fill="#161615"/><path d="M32.943,17.855c6.056.522,9.136,3.863,9.136,8.771,0,6.056-3.864,9.919-13.678,9.919H0V0H28.661C37.12,0,40.774,3.6,40.774,8.719c0,4.438-2.767,7.518-7.831,8.04ZM10.859,8.51v5.8H25.791c2.505,0,3.706-1.149,3.706-2.924,0-1.723-1.2-2.871-3.706-2.871ZM26.835,28.035c2.715,0,3.967-1.253,3.967-3.132,0-1.932-1.253-3.185-3.967-3.185H10.859v6.317Z" transform="translate(141.364 0)" fill="#161615"/><rect width="9.919" height="26.574" transform="translate(187.456 9.972)" fill="#161615"/><path d="M2.976,23.6a8.3,8.3,0,0,1,7.831-8.562V14.1H0V7H5.847c2.3,0,3.237-.888,3.237-3.185V0h8.144V6.578H31.742V14.1H15.3c-1.619.783-2.819,2.349-2.819,5.482,0,3.759,1.879,5.638,5.795,5.638,4.02,0,5.8-1.827,5.8-4.124v-.679h9.971V21.3c0,7.309-4.96,12.269-15.766,12.269s-15.3-4.542-15.3-9.972" transform="translate(201.661 3.707)" fill="#161615"/><path d="M0,13.992C0,6.317,6.317,0,18.272,0,28.922,0,35.762,5.012,36.6,12.06H26.625c-.574-2.193-3.132-4.333-8.353-4.333-5.43,0-8.353,2.923-8.353,6.265,0,3.289,2.924,6.213,8.353,6.213,5.221,0,7.779-2.14,8.353-4.333H36.6c-.836,7.048-7.675,12.112-18.325,12.112C6.317,27.983,0,21.614,0,13.992" transform="translate(238.048 9.293)" fill="#161615"/><path d="M0,36.545V0H9.919V8.144a36.866,36.866,0,0,1-1.41,9.606H9.5c1.566-5.691,5.69-8.458,12.164-8.458,8.719,0,14.1,5.325,14.1,14.3V36.545H25.842v-10.6c0-5.325-2.976-8.3-7.988-8.3-4.96,0-7.936,2.976-7.936,8.3v10.6Z" transform="translate(278.299 0)" fill="#161615"/></g></g><g transform="translate(1472.604 11.362)" style="mix-blend-mode:multiply;isolation:isolate"><g clip-path="url(#d)"><path d="M32.943,17.855c6.056.522,9.136,3.863,9.136,8.771,0,6.056-3.864,9.919-13.678,9.919H0V0H28.661c8.458,0,12.113,3.6,12.113,8.719,0,4.438-2.767,7.518-7.831,8.04ZM10.859,8.51v5.8H25.791c2.506,0,3.707-1.149,3.707-2.924,0-1.723-1.2-2.871-3.707-2.871ZM26.835,28.035c2.715,0,3.967-1.253,3.967-3.132,0-1.932-1.253-3.185-3.967-3.185H10.859v6.317Z" transform="translate(0 0)" fill="#161615"/><path d="M0,13.992C0,5.638,5.639,0,14.461,0c7.1,0,11.225,2.715,12.9,7.675h.94l-1.41-7h9.972V27.252H26.887l1.41-6.944h-.94c-1.67,4.908-5.795,7.674-12.9,7.674C5.639,27.983,0,22.293,0,13.992m26.73,0c0-3.446-2.819-6.265-8.405-6.265s-8.406,2.819-8.406,6.265c0,3.394,2.819,6.213,8.406,6.213s8.405-2.819,8.405-6.213" transform="translate(45.523 9.293)" fill="#161615"/><path d="M0,27.252V.679H9.919L8.614,7.831h.992C11.12,2.61,14.931,0,20.465,0c7.883,0,12.477,4.542,12.477,14.2v1.1H22.815v-.261c0-4.124-2.35-6.474-6.474-6.474-4.02,0-6.422,2.349-6.422,7V27.252Z" transform="translate(88.749 9.293)" fill="#161615"/><path d="M0,6.364C0,2.683,2.683,0,6.738,0c4.118,0,6.8,2.683,6.8,6.364,0,3.619-2.683,6.364-6.8,6.364C2.683,12.728,0,9.983,0,6.364" transform="translate(123.396 24.548)" fill="#161615"/><path d="M32.943,17.855c6.056.522,9.136,3.863,9.136,8.771,0,6.056-3.863,9.919-13.678,9.919H0V0H28.662c8.457,0,12.112,3.6,12.112,8.719,0,4.438-2.767,7.518-7.831,8.04ZM10.859,8.51v5.8H25.791c2.506,0,3.707-1.149,3.707-2.924,0-1.723-1.2-2.871-3.707-2.871ZM26.835,28.035c2.715,0,3.968-1.253,3.968-3.132,0-1.932-1.253-3.185-3.968-3.185H10.859v6.317Z" transform="translate(141.364 0)" fill="#161615"/><rect width="9.919" height="26.574" transform="translate(187.457 9.972)" fill="#161615"/><path d="M2.976,23.6a8.3,8.3,0,0,1,7.831-8.562V14.1H0V7H5.847c2.3,0,3.237-.888,3.237-3.185V0h8.144V6.578H31.742V14.1H15.3c-1.618.783-2.819,2.349-2.819,5.482,0,3.759,1.879,5.638,5.795,5.638,4.02,0,5.8-1.827,5.8-4.124v-.679h9.971V21.3c0,7.309-4.96,12.269-15.767,12.269s-15.3-4.542-15.3-9.972" transform="translate(201.662 3.707)" fill="#161615"/><path d="M0,13.992C0,6.317,6.317,0,18.272,0,28.923,0,35.762,5.012,36.6,12.06H26.626c-.574-2.193-3.132-4.333-8.353-4.333-5.43,0-8.353,2.923-8.353,6.265,0,3.289,2.923,6.213,8.353,6.213,5.221,0,7.779-2.14,8.353-4.333H36.6c-.835,7.048-7.674,12.112-18.325,12.112C6.317,27.983,0,21.614,0,13.992" transform="translate(238.049 9.293)" fill="#161615"/><path d="M0,36.545V0H9.919V8.144A36.91,36.91,0,0,1,8.51,17.75H9.5c1.566-5.691,5.69-8.458,12.164-8.458,8.719,0,14.1,5.325,14.1,14.3V36.545H25.843v-10.6c0-5.325-2.976-8.3-7.988-8.3-4.959,0-7.935,2.976-7.935,8.3v10.6Z" transform="translate(278.3 0)" fill="#161615"/></g></g><g transform="translate(1836.138 11.362)" style="mix-blend-mode:multiply;isolation:isolate"><g clip-path="url(#d)"><path d="M32.942,17.855c6.056.522,9.137,3.863,9.137,8.771,0,6.056-3.863,9.919-13.679,9.919H0V0H28.662c8.458,0,12.112,3.6,12.112,8.719,0,4.438-2.767,7.518-7.831,8.04ZM10.859,8.51v5.8H25.79c2.506,0,3.707-1.149,3.707-2.924,0-1.723-1.2-2.871-3.707-2.871ZM26.834,28.035c2.715,0,3.968-1.253,3.968-3.132,0-1.932-1.253-3.185-3.968-3.185H10.859v6.317Z" transform="translate(0 0)" fill="#161615"/><path d="M0,13.992C0,5.638,5.638,0,14.461,0c7.1,0,11.225,2.715,12.9,7.675H28.3l-1.409-7h9.971V27.252H26.887L28.3,20.309h-.939c-1.671,4.908-5.8,7.674-12.9,7.674C5.638,27.983,0,22.293,0,13.992m26.73,0c0-3.446-2.82-6.265-8.406-6.265s-8.405,2.819-8.405,6.265c0,3.394,2.82,6.213,8.405,6.213s8.406-2.819,8.406-6.213" transform="translate(45.524 9.293)" fill="#161615"/><path d="M0,27.252V.679h9.92L8.614,7.831h.992C11.12,2.61,14.931,0,20.465,0c7.883,0,12.477,4.542,12.477,14.2v1.1H22.814v-.261c0-4.124-2.349-6.474-6.473-6.474-4.02,0-6.422,2.349-6.422,7V27.252Z" transform="translate(88.75 9.293)" fill="#161615"/><path d="M0,6.364C0,2.683,2.682,0,6.738,0c4.117,0,6.8,2.683,6.8,6.364,0,3.619-2.683,6.364-6.8,6.364C2.682,12.728,0,9.983,0,6.364" transform="translate(123.397 24.548)" fill="#161615"/><path d="M32.943,17.855c6.056.522,9.136,3.863,9.136,8.771,0,6.056-3.863,9.919-13.679,9.919H0V0H28.662c8.457,0,12.112,3.6,12.112,8.719,0,4.438-2.767,7.518-7.831,8.04ZM10.859,8.51v5.8H25.79c2.506,0,3.707-1.149,3.707-2.924,0-1.723-1.2-2.871-3.707-2.871ZM26.835,28.035c2.715,0,3.967-1.253,3.967-3.132,0-1.932-1.253-3.185-3.967-3.185H10.859v6.317Z" transform="translate(141.365 0)" fill="#161615"/><rect width="9.919" height="26.574" transform="translate(187.458 9.972)" fill="#161615"/><path d="M2.976,23.6a8.3,8.3,0,0,1,7.832-8.562V14.1H0V7H5.847c2.3,0,3.237-.888,3.237-3.185V0h8.145V6.578H31.742V14.1H15.3c-1.619.783-2.82,2.349-2.82,5.482,0,3.759,1.88,5.638,5.795,5.638,4.02,0,5.8-1.827,5.8-4.124v-.679h9.972V21.3c0,7.309-4.961,12.269-15.767,12.269s-15.3-4.542-15.3-9.972" transform="translate(201.662 3.707)" fill="#161615"/><path d="M0,13.992C0,6.317,6.317,0,18.272,0,28.923,0,35.762,5.012,36.6,12.06H26.626c-.574-2.193-3.132-4.333-8.353-4.333-5.43,0-8.353,2.923-8.353,6.265,0,3.289,2.923,6.213,8.353,6.213,5.221,0,7.779-2.14,8.353-4.333H36.6c-.835,7.048-7.674,12.112-18.325,12.112C6.317,27.983,0,21.614,0,13.992" transform="translate(238.05 9.293)" fill="#161615"/><path d="M0,36.545V0H9.919V8.144A36.934,36.934,0,0,1,8.51,17.75H9.5c1.566-5.691,5.69-8.458,12.164-8.458,8.719,0,14.1,5.325,14.1,14.3V36.545h-9.92v-10.6c0-5.325-2.975-8.3-7.987-8.3-4.96,0-7.935,2.976-7.935,8.3v10.6Z" transform="translate(278.3 0)" fill="#161615"/></g></g></g></g></g></g></svg>