<svg xmlns="http://www.w3.org/2000/svg" xmlns:xlink="http://www.w3.org/1999/xlink" width="868" height="60" viewBox="0 0 868 60"><defs><clipPath id="b"><rect width="868" height="60"/></clipPath></defs><g id="a" clip-path="url(#b)"><rect width="868" height="60" fill="#fff"/><g transform="translate(-216.729 0)"><rect width="2168.667" height="60" transform="translate(54.427 0)" fill="#db005b"/><path d="M48.454,0,0,60H60L108.453,0Z" transform="translate(0 0)" fill="#161615"/><path d="M48.454,0,0,60H60L108.454,0Z" transform="translate(108.453 0)" fill="#161615"/><path d="M48.453,0,0,60H60L108.453,0Z" transform="translate(216.907 0)" fill="#161615"/><path d="M48.454,0,0,60H60L108.453,0Z" transform="translate(325.36 0)" fill="#161615"/><path d="M48.453,0,0,60H60L108.453,0Z" transform="translate(433.814 0)" fill="#161615"/><path d="M48.453,0,0,60H60L108.454,0Z" transform="translate(542.267 0)" fill="#161615"/><path d="M48.454,0,0,60H60L108.453,0Z" transform="translate(650.72 0)" fill="#161615"/><path d="M48.453,0,0,60H60L108.453,0Z" transform="translate(759.174 0)" fill="#161615"/><path d="M48.453,0,0,60H60L108.453,0Z" transform="translate(867.627 0)" fill="#161615"/><path d="M48.454,0,0,60H60L108.454,0Z" transform="translate(976.08 0)" fill="#161615"/><path d="M48.454,0,0,60H60L108.454,0Z" transform="translate(1084.534 0)" fill="#161615"/><path d="M48.453,0,0,60H60L108.453,0Z" transform="translate(1192.987 0)" fill="#161615"/><path d="M48.453,0,0,60H60L108.453,0Z" transform="translate(1301.441 0)" fill="#161615"/><path d="M48.453,0,0,60H60L108.453,0Z" transform="translate(1409.894 0)" fill="#161615"/><path d="M48.454,0,0,60H60L108.453,0Z" transform="translate(1518.348 0)" fill="#161615"/><path d="M48.453,0,0,60H60L108.453,0Z" transform="translate(1626.801 0)" fill="#161615"/><path d="M48.454,0,0,60H60L108.453,0Z" transform="translate(1735.254 0)" fill="#161615"/><path d="M48.453,0,0,60H60L108.453,0Z" transform="translate(1843.708 0)" fill="#161615"/><path d="M48.453,0,0,60H60L108.452,0Z" transform="translate(1952.162 0)" fill="#161615"/><path d="M48.454,0,0,60H60L108.455,0Z" transform="translate(2060.615 0)" fill="#161615"/><path d="M48.454,0,0,60H60L108.453,0Z" transform="translate(2169.068 0)" fill="#161615"/></g></g></svg>