<svg xmlns="http://www.w3.org/2000/svg" xmlns:xlink="http://www.w3.org/1999/xlink" width="844" height="60" viewBox="0 0 844 60"><defs><clipPath id="b"><rect width="844" height="60"/></clipPath></defs><g id="a" clip-path="url(#b)"><rect width="844" height="60" fill="#fff"/><path d="M0,0H2168.671V60H0Z" transform="translate(-16)" fill="#db005b"/><path d="M7.725.2C12.315.2,14.7-2.19,14.7-5.25S12.315-10.7,7.725-10.7.75-8.31.75-5.25,3.135.2,7.725.2Zm0-2.175C4.86-1.98,3.42-3.42,3.42-5.25S4.86-8.52,7.725-8.52s4.3,1.44,4.3,3.27S10.59-1.98,7.725-1.98ZM16.65-10.5V0h2.67V-3.225H23.4c2.97,0,4.4-1.44,4.4-3.645S26.37-10.5,23.4-10.5Zm2.535,5.13V-8.355H23.3c1.23,0,1.83.6,1.83,1.485,0,.9-.6,1.5-1.83,1.5ZM40.1-10.5H29.67V0H40.1V-2.1H32.34v-2.3h6.7V-6.27h-6.7V-8.4H40.1ZM44.715,0V-6.15a8.649,8.649,0,0,0-.39-2.76h.255L50.19,0h4.155V-10.5H51.78v6.15a8.649,8.649,0,0,0,.39,2.76h-.255L46.3-10.5H42.15V0ZM65.64,0V-2.145H62.355v-6.21H65.64V-10.5H56.4v2.145h3.285v6.21H56.4V0Zm4.62,0V-6.15a8.649,8.649,0,0,0-.39-2.76h.255L75.735,0H79.89V-10.5H77.325v6.15a8.649,8.649,0,0,0,.39,2.76H77.46L71.85-10.5H67.695V0Zm22.4-3.75c-.5.99-1.725,1.875-3.99,1.875-2.76,0-4.2-1.44-4.2-3.375,0-1.86,1.44-3.3,4.17-3.3,2.475,0,3.765,1.005,4.215,2.25h2.67c-.525-2.415-2.58-4.4-6.885-4.4-4.41,0-6.795,2.385-6.795,5.445S84.225.2,88.185.2c2.88,0,4.32-1.305,4.92-2.55h.24L92.88,0h2.34V-5.43H87.66v1.68Z" transform="translate(0.67 26.711)" fill="#161615"/><path d="M7.1.2c4.71,0,6.225-1.5,6.225-3.36,0-4.86-9.675-1.815-9.675-4.23,0-.66.615-1.275,3.435-1.275,2.595,0,3.45.855,3.45,1.8v.12h2.715v-.12C13.245-9,11.55-10.7,7.08-10.7,2.37-10.7.93-9.255.93-7.515c0,4.755,9.675,1.635,9.675,4.35,0,.72-.615,1.335-3.51,1.335-2.67,0-3.525-.855-3.525-2.01v-.135H.855v.2C.855-1.5,2.55.2,7.1.2Zm14.73,0C26.415.2,28.8-2.19,28.8-5.25S26.415-10.7,21.825-10.7,14.85-8.31,14.85-5.25,17.235.2,21.825.2Zm0-2.175c-2.865,0-4.305-1.44-4.305-3.27s1.44-3.27,4.305-3.27S26.13-7.08,26.13-5.25,24.69-1.98,21.825-1.98ZM37.275.2C41.865.2,44.25-2.19,44.25-5.25S41.865-10.7,37.275-10.7,30.3-8.31,30.3-5.25,32.685.2,37.275.2Zm0-2.175c-2.865,0-4.305-1.44-4.305-3.27s1.44-3.27,4.305-3.27S41.58-7.08,41.58-5.25,40.14-1.98,37.275-1.98ZM48.765,0V-6.15a8.649,8.649,0,0,0-.39-2.76h.255L54.24,0H58.4V-10.5H55.83v6.15a8.649,8.649,0,0,0,.39,2.76h-.255l-5.61-8.91H46.2V0Z" transform="translate(21.641 42.778)" fill="#161615"/><path d="M0,26.5a5.037,5.037,0,0,1,5.4-5.089c3.275,0,5.443,2.168,5.443,5.089S8.673,31.593,5.4,31.593A5.037,5.037,0,0,1,0,26.5m1.859-6.858L.133,11.062V0h10.62V11.062L9.027,19.646Z" transform="translate(119.957 14.401)" fill="#161615"/><path d="M0,26.5a5.037,5.037,0,0,1,5.4-5.089c3.274,0,5.443,2.168,5.443,5.089S8.673,31.593,5.4,31.593A5.037,5.037,0,0,1,0,26.5m1.859-6.858L.133,11.062V0h10.62V11.062L9.027,19.646Z" transform="translate(134.779 14.401)" fill="#161615"/><path d="M0,26.5a5.037,5.037,0,0,1,5.4-5.089c3.275,0,5.443,2.168,5.443,5.089S8.673,31.593,5.4,31.593A5.037,5.037,0,0,1,0,26.5m1.859-6.858L.133,11.062V0h10.62V11.062L9.027,19.646Z" transform="translate(149.602 14.401)" fill="#161615"/><path d="M0,0H2168.671V60H0Z" transform="translate(-16)" fill="none"/><path d="M7.725.2C12.315.2,14.7-2.19,14.7-5.25S12.315-10.7,7.725-10.7.75-8.31.75-5.25,3.135.2,7.725.2Zm0-2.175C4.86-1.98,3.42-3.42,3.42-5.25S4.86-8.52,7.725-8.52s4.3,1.44,4.3,3.27S10.59-1.98,7.725-1.98ZM16.65-10.5V0h2.67V-3.225H23.4c2.97,0,4.4-1.44,4.4-3.645S26.37-10.5,23.4-10.5Zm2.535,5.13V-8.355H23.3c1.23,0,1.83.6,1.83,1.485,0,.9-.6,1.5-1.83,1.5ZM40.1-10.5H29.67V0H40.1V-2.1H32.34v-2.3h6.7V-6.27h-6.7V-8.4H40.1ZM44.715,0V-6.15a8.649,8.649,0,0,0-.39-2.76h.255L50.19,0h4.155V-10.5H51.78v6.15a8.649,8.649,0,0,0,.39,2.76h-.255L46.3-10.5H42.15V0ZM65.64,0V-2.145H62.355v-6.21H65.64V-10.5H56.4v2.145h3.285v6.21H56.4V0Zm4.62,0V-6.15a8.649,8.649,0,0,0-.39-2.76h.255L75.735,0H79.89V-10.5H77.325v6.15a8.649,8.649,0,0,0,.39,2.76H77.46L71.85-10.5H67.695V0Zm22.4-3.75c-.5.99-1.725,1.875-3.99,1.875-2.76,0-4.2-1.44-4.2-3.375,0-1.86,1.44-3.3,4.17-3.3,2.475,0,3.765,1.005,4.215,2.25h2.67c-.525-2.415-2.58-4.4-6.885-4.4-4.41,0-6.795,2.385-6.795,5.445S84.225.2,88.185.2c2.88,0,4.32-1.305,4.92-2.55h.24L92.88,0h2.34V-5.43H87.66v1.68Z" transform="translate(169.422 26.711)" fill="#161615"/><path d="M7.1.2c4.71,0,6.225-1.5,6.225-3.36,0-4.86-9.675-1.815-9.675-4.23,0-.66.615-1.275,3.435-1.275,2.595,0,3.45.855,3.45,1.8v.12h2.715v-.12C13.245-9,11.55-10.7,7.08-10.7,2.37-10.7.93-9.255.93-7.515c0,4.755,9.675,1.635,9.675,4.35,0,.72-.615,1.335-3.51,1.335-2.67,0-3.525-.855-3.525-2.01v-.135H.855v.2C.855-1.5,2.55.2,7.1.2Zm14.73,0C26.415.2,28.8-2.19,28.8-5.25S26.415-10.7,21.825-10.7,14.85-8.31,14.85-5.25,17.235.2,21.825.2Zm0-2.175c-2.865,0-4.305-1.44-4.305-3.27s1.44-3.27,4.305-3.27S26.13-7.08,26.13-5.25,24.69-1.98,21.825-1.98ZM37.275.2C41.865.2,44.25-2.19,44.25-5.25S41.865-10.7,37.275-10.7,30.3-8.31,30.3-5.25,32.685.2,37.275.2Zm0-2.175c-2.865,0-4.305-1.44-4.305-3.27s1.44-3.27,4.305-3.27S41.58-7.08,41.58-5.25,40.14-1.98,37.275-1.98ZM48.765,0V-6.15a8.649,8.649,0,0,0-.39-2.76h.255L54.24,0H58.4V-10.5H55.83v6.15a8.649,8.649,0,0,0,.39,2.76h-.255l-5.61-8.91H46.2V0Z" transform="translate(190.393 42.778)" fill="#161615"/><path d="M0,26.5a5.037,5.037,0,0,1,5.4-5.089c3.274,0,5.442,2.168,5.442,5.089S8.673,31.593,5.4,31.593A5.037,5.037,0,0,1,0,26.5m1.859-6.858L.133,11.062V0h10.62V11.062L9.027,19.646Z" transform="translate(288.709 14.401)" fill="#161615"/><path d="M0,26.5a5.037,5.037,0,0,1,5.4-5.089c3.274,0,5.443,2.168,5.443,5.089S8.673,31.593,5.4,31.593A5.037,5.037,0,0,1,0,26.5m1.859-6.858L.133,11.062V0h10.62V11.062L9.027,19.646Z" transform="translate(303.531 14.401)" fill="#161615"/><path d="M0,26.5a5.037,5.037,0,0,1,5.4-5.089c3.274,0,5.443,2.168,5.443,5.089S8.673,31.593,5.4,31.593A5.037,5.037,0,0,1,0,26.5m1.859-6.858L.133,11.062V0h10.62V11.062L9.027,19.646Z" transform="translate(318.354 14.401)" fill="#161615"/><path d="M0,0H2168.671V60H0Z" transform="translate(-16)" fill="none"/><path d="M7.725.2C12.315.2,14.7-2.19,14.7-5.25S12.315-10.7,7.725-10.7.75-8.31.75-5.25,3.135.2,7.725.2Zm0-2.175C4.86-1.98,3.42-3.42,3.42-5.25S4.86-8.52,7.725-8.52s4.3,1.44,4.3,3.27S10.59-1.98,7.725-1.98ZM16.65-10.5V0h2.67V-3.225H23.4c2.97,0,4.4-1.44,4.4-3.645S26.37-10.5,23.4-10.5Zm2.535,5.13V-8.355H23.3c1.23,0,1.83.6,1.83,1.485,0,.9-.6,1.5-1.83,1.5ZM40.1-10.5H29.67V0H40.1V-2.1H32.34v-2.3h6.7V-6.27h-6.7V-8.4H40.1ZM44.715,0V-6.15a8.649,8.649,0,0,0-.39-2.76h.255L50.19,0h4.155V-10.5H51.78v6.15a8.649,8.649,0,0,0,.39,2.76h-.255L46.3-10.5H42.15V0ZM65.64,0V-2.145H62.355v-6.21H65.64V-10.5H56.4v2.145h3.285v6.21H56.4V0Zm4.62,0V-6.15a8.649,8.649,0,0,0-.39-2.76h.255L75.735,0H79.89V-10.5H77.325v6.15a8.649,8.649,0,0,0,.39,2.76H77.46L71.85-10.5H67.695V0Zm22.4-3.75c-.5.99-1.725,1.875-3.99,1.875-2.76,0-4.2-1.44-4.2-3.375,0-1.86,1.44-3.3,4.17-3.3,2.475,0,3.765,1.005,4.215,2.25h2.67c-.525-2.415-2.58-4.4-6.885-4.4-4.41,0-6.795,2.385-6.795,5.445S84.225.2,88.185.2c2.88,0,4.32-1.305,4.92-2.55h.24L92.88,0h2.34V-5.43H87.66v1.68Z" transform="translate(338.174 26.711)" fill="#161615"/><path d="M7.1.2c4.71,0,6.225-1.5,6.225-3.36,0-4.86-9.675-1.815-9.675-4.23,0-.66.615-1.275,3.435-1.275,2.595,0,3.45.855,3.45,1.8v.12h2.715v-.12C13.245-9,11.55-10.7,7.08-10.7,2.37-10.7.93-9.255.93-7.515c0,4.755,9.675,1.635,9.675,4.35,0,.72-.615,1.335-3.51,1.335-2.67,0-3.525-.855-3.525-2.01v-.135H.855v.2C.855-1.5,2.55.2,7.1.2Zm14.73,0C26.415.2,28.8-2.19,28.8-5.25S26.415-10.7,21.825-10.7,14.85-8.31,14.85-5.25,17.235.2,21.825.2Zm0-2.175c-2.865,0-4.305-1.44-4.305-3.27s1.44-3.27,4.305-3.27S26.13-7.08,26.13-5.25,24.69-1.98,21.825-1.98ZM37.275.2C41.865.2,44.25-2.19,44.25-5.25S41.865-10.7,37.275-10.7,30.3-8.31,30.3-5.25,32.685.2,37.275.2Zm0-2.175c-2.865,0-4.305-1.44-4.305-3.27s1.44-3.27,4.305-3.27S41.58-7.08,41.58-5.25,40.14-1.98,37.275-1.98ZM48.765,0V-6.15a8.649,8.649,0,0,0-.39-2.76h.255L54.24,0H58.4V-10.5H55.83v6.15a8.649,8.649,0,0,0,.39,2.76h-.255l-5.61-8.91H46.2V0Z" transform="translate(359.145 42.778)" fill="#161615"/><path d="M0,26.5a5.037,5.037,0,0,1,5.4-5.089c3.274,0,5.443,2.168,5.443,5.089S8.673,31.593,5.4,31.593A5.037,5.037,0,0,1,0,26.5m1.859-6.858L.133,11.062V0h10.62V11.062L9.027,19.646Z" transform="translate(457.461 14.401)" fill="#161615"/><path d="M0,26.5a5.037,5.037,0,0,1,5.4-5.089c3.274,0,5.443,2.168,5.443,5.089S8.673,31.593,5.4,31.593A5.037,5.037,0,0,1,0,26.5m1.859-6.858L.133,11.062V0h10.62V11.062L9.027,19.646Z" transform="translate(472.283 14.401)" fill="#161615"/><path d="M0,26.5a5.037,5.037,0,0,1,5.4-5.089c3.274,0,5.443,2.168,5.443,5.089S8.673,31.593,5.4,31.593A5.037,5.037,0,0,1,0,26.5m1.859-6.858L.133,11.062V0H10.752V11.062L9.027,19.646Z" transform="translate(487.106 14.401)" fill="#161615"/><path d="M0,0H2168.671V60H0Z" transform="translate(-16)" fill="none"/><path d="M7.725.2C12.315.2,14.7-2.19,14.7-5.25S12.315-10.7,7.725-10.7.75-8.31.75-5.25,3.135.2,7.725.2Zm0-2.175C4.86-1.98,3.42-3.42,3.42-5.25S4.86-8.52,7.725-8.52s4.3,1.44,4.3,3.27S10.59-1.98,7.725-1.98ZM16.65-10.5V0h2.67V-3.225H23.4c2.97,0,4.4-1.44,4.4-3.645S26.37-10.5,23.4-10.5Zm2.535,5.13V-8.355H23.3c1.23,0,1.83.6,1.83,1.485,0,.9-.6,1.5-1.83,1.5ZM40.1-10.5H29.67V0H40.1V-2.1H32.34v-2.3h6.7V-6.27h-6.7V-8.4H40.1ZM44.715,0V-6.15a8.649,8.649,0,0,0-.39-2.76h.255L50.19,0h4.155V-10.5H51.78v6.15a8.649,8.649,0,0,0,.39,2.76h-.255L46.3-10.5H42.15V0ZM65.64,0V-2.145H62.355v-6.21H65.64V-10.5H56.4v2.145h3.285v6.21H56.4V0Zm4.62,0V-6.15a8.649,8.649,0,0,0-.39-2.76h.255L75.735,0H79.89V-10.5H77.325v6.15a8.649,8.649,0,0,0,.39,2.76H77.46L71.85-10.5H67.695V0Zm22.4-3.75c-.5.99-1.725,1.875-3.99,1.875-2.76,0-4.2-1.44-4.2-3.375,0-1.86,1.44-3.3,4.17-3.3,2.475,0,3.765,1.005,4.215,2.25h2.67c-.525-2.415-2.58-4.4-6.885-4.4-4.41,0-6.795,2.385-6.795,5.445S84.225.2,88.185.2c2.88,0,4.32-1.305,4.92-2.55h.24L92.88,0h2.34V-5.43H87.66v1.68Z" transform="translate(506.926 26.711)" fill="#161615"/><path d="M7.1.2c4.71,0,6.225-1.5,6.225-3.36,0-4.86-9.675-1.815-9.675-4.23,0-.66.615-1.275,3.435-1.275,2.595,0,3.45.855,3.45,1.8v.12h2.715v-.12C13.245-9,11.55-10.7,7.08-10.7,2.37-10.7.93-9.255.93-7.515c0,4.755,9.675,1.635,9.675,4.35,0,.72-.615,1.335-3.51,1.335-2.67,0-3.525-.855-3.525-2.01v-.135H.855v.2C.855-1.5,2.55.2,7.1.2Zm14.73,0C26.415.2,28.8-2.19,28.8-5.25S26.415-10.7,21.825-10.7,14.85-8.31,14.85-5.25,17.235.2,21.825.2Zm0-2.175c-2.865,0-4.305-1.44-4.305-3.27s1.44-3.27,4.305-3.27S26.13-7.08,26.13-5.25,24.69-1.98,21.825-1.98ZM37.275.2C41.865.2,44.25-2.19,44.25-5.25S41.865-10.7,37.275-10.7,30.3-8.31,30.3-5.25,32.685.2,37.275.2Zm0-2.175c-2.865,0-4.305-1.44-4.305-3.27s1.44-3.27,4.305-3.27S41.58-7.08,41.58-5.25,40.14-1.98,37.275-1.98ZM48.765,0V-6.15a8.649,8.649,0,0,0-.39-2.76h.255L54.24,0H58.4V-10.5H55.83v6.15a8.649,8.649,0,0,0,.39,2.76h-.255l-5.61-8.91H46.2V0Z" transform="translate(527.897 42.778)" fill="#161615"/><path d="M0,26.5a5.037,5.037,0,0,1,5.4-5.089c3.275,0,5.443,2.168,5.443,5.089S8.673,31.593,5.4,31.593A5.037,5.037,0,0,1,0,26.5m1.859-6.858L.133,11.062V0h10.62V11.062L9.027,19.646Z" transform="translate(626.213 14.401)" fill="#161615"/><path d="M0,26.5a5.036,5.036,0,0,1,5.4-5.089c3.275,0,5.442,2.168,5.442,5.089S8.672,31.593,5.4,31.593A5.036,5.036,0,0,1,0,26.5m1.858-6.858L.133,11.062V0h10.62V11.062L9.026,19.646Z" transform="translate(641.035 14.401)" fill="#161615"/><path d="M0,26.5a5.037,5.037,0,0,1,5.4-5.089c3.275,0,5.443,2.168,5.443,5.089S8.673,31.593,5.4,31.593A5.037,5.037,0,0,1,0,26.5m1.859-6.858L.133,11.062V0H10.752V11.062L9.027,19.646Z" transform="translate(655.858 14.401)" fill="#161615"/><path d="M0,0H2168.671V60H0Z" transform="translate(-16)" fill="none"/><path d="M7.725.2C12.315.2,14.7-2.19,14.7-5.25S12.315-10.7,7.725-10.7.75-8.31.75-5.25,3.135.2,7.725.2Zm0-2.175C4.86-1.98,3.42-3.42,3.42-5.25S4.86-8.52,7.725-8.52s4.3,1.44,4.3,3.27S10.59-1.98,7.725-1.98ZM16.65-10.5V0h2.67V-3.225H23.4c2.97,0,4.4-1.44,4.4-3.645S26.37-10.5,23.4-10.5Zm2.535,5.13V-8.355H23.3c1.23,0,1.83.6,1.83,1.485,0,.9-.6,1.5-1.83,1.5ZM40.1-10.5H29.67V0H40.1V-2.1H32.34v-2.3h6.7V-6.27h-6.7V-8.4H40.1ZM44.715,0V-6.15a8.649,8.649,0,0,0-.39-2.76h.255L50.19,0h4.155V-10.5H51.78v6.15a8.649,8.649,0,0,0,.39,2.76h-.255L46.3-10.5H42.15V0ZM65.64,0V-2.145H62.355v-6.21H65.64V-10.5H56.4v2.145h3.285v6.21H56.4V0Zm4.62,0V-6.15a8.649,8.649,0,0,0-.39-2.76h.255L75.735,0H79.89V-10.5H77.325v6.15a8.649,8.649,0,0,0,.39,2.76H77.46L71.85-10.5H67.695V0Zm22.4-3.75c-.5.99-1.725,1.875-3.99,1.875-2.76,0-4.2-1.44-4.2-3.375,0-1.86,1.44-3.3,4.17-3.3,2.475,0,3.765,1.005,4.215,2.25h2.67c-.525-2.415-2.58-4.4-6.885-4.4-4.41,0-6.795,2.385-6.795,5.445S84.225.2,88.185.2c2.88,0,4.32-1.305,4.92-2.55h.24L92.88,0h2.34V-5.43H87.66v1.68Z" transform="translate(675.678 26.711)" fill="#161615"/><path d="M7.1.2c4.71,0,6.225-1.5,6.225-3.36,0-4.86-9.675-1.815-9.675-4.23,0-.66.615-1.275,3.435-1.275,2.595,0,3.45.855,3.45,1.8v.12h2.715v-.12C13.245-9,11.55-10.7,7.08-10.7,2.37-10.7.93-9.255.93-7.515c0,4.755,9.675,1.635,9.675,4.35,0,.72-.615,1.335-3.51,1.335-2.67,0-3.525-.855-3.525-2.01v-.135H.855v.2C.855-1.5,2.55.2,7.1.2Zm14.73,0C26.415.2,28.8-2.19,28.8-5.25S26.415-10.7,21.825-10.7,14.85-8.31,14.85-5.25,17.235.2,21.825.2Zm0-2.175c-2.865,0-4.305-1.44-4.305-3.27s1.44-3.27,4.305-3.27S26.13-7.08,26.13-5.25,24.69-1.98,21.825-1.98ZM37.275.2C41.865.2,44.25-2.19,44.25-5.25S41.865-10.7,37.275-10.7,30.3-8.31,30.3-5.25,32.685.2,37.275.2Zm0-2.175c-2.865,0-4.305-1.44-4.305-3.27s1.44-3.27,4.305-3.27S41.58-7.08,41.58-5.25,40.14-1.98,37.275-1.98ZM48.765,0V-6.15a8.649,8.649,0,0,0-.39-2.76h.255L54.24,0H58.4V-10.5H55.83v6.15a8.649,8.649,0,0,0,.39,2.76h-.255l-5.61-8.91H46.2V0Z" transform="translate(696.649 42.778)" fill="#161615"/><path d="M0,26.5a5.037,5.037,0,0,1,5.4-5.089c3.274,0,5.443,2.168,5.443,5.089S8.672,31.593,5.4,31.593A5.037,5.037,0,0,1,0,26.5m1.859-6.858L.133,11.062V0h10.62V11.062L9.027,19.646Z" transform="translate(794.965 14.401)" fill="#161615"/><path d="M0,26.5a5.037,5.037,0,0,1,5.4-5.089c3.275,0,5.443,2.168,5.443,5.089S8.673,31.593,5.4,31.593A5.037,5.037,0,0,1,0,26.5m1.859-6.858L.133,11.062V0h10.62V11.062L9.027,19.646Z" transform="translate(809.787 14.401)" fill="#161615"/><path d="M0,26.5a5.037,5.037,0,0,1,5.4-5.089c3.274,0,5.442,2.168,5.442,5.089S8.672,31.593,5.4,31.593A5.037,5.037,0,0,1,0,26.5m1.859-6.858L.133,11.062V0h10.62V11.062L9.027,19.646Z" transform="translate(824.61 14.401)" fill="#161615"/><path d="M0,0H2168.671V60H0Z" transform="translate(-16)" fill="none"/><path d="M0,0H2168.671V60H0Z" transform="translate(-16)" fill="none"/><path d="M0,0H2168.671V60H0Z" transform="translate(-16)" fill="none"/><path d="M0,0H2168.671V60H0Z" transform="translate(-16)" fill="none"/><path d="M0,0H2168.671V60H0Z" transform="translate(-16)" fill="none"/><path d="M0,0H2168.671V60H0Z" transform="translate(-16)" fill="none"/><path d="M0,0H2168.671V60H0Z" transform="translate(-16)" fill="none"/><path d="M0,0H2168.671V60H0Z" transform="translate(-16)" fill="none"/></g></svg>