<?xml version="1.0" encoding="UTF-8"?><svg xmlns="http://www.w3.org/2000/svg" width="584.86mm" height="378.65mm" viewBox="0 0 1657.87 1073.34"><g isolation="isolate"><g id="b"><g mix-blend-mode="multiply"><path d="M843.55,474.19c24.15,2.08,36.44,15.41,36.44,34.98,0,24.15-15.41,39.56-54.55,39.56h-113.27v-145.75h114.31c33.73,0,48.31,14.37,48.31,34.77,0,17.7-11.04,29.98-31.23,32.07v4.37ZM755.48,436.92v23.11h59.55c9.99,0,14.78-4.58,14.78-11.66s-4.79-11.45-14.78-11.45h-59.55ZM819.19,514.79c10.83,0,15.82-5,15.82-12.49s-5-12.7-15.82-12.7h-63.72v25.19h63.72Z" fill="#1d1d1b"/><path d="M893.73,495.84c0-33.31,22.49-55.8,57.68-55.8,28.32,0,44.77,10.83,51.43,30.61h3.75l-5.62-27.9h39.77v105.98h-39.77l5.62-27.69h-3.75c-6.66,19.57-23.11,30.61-51.43,30.61-35.19,0-57.68-22.7-57.68-55.8ZM1000.34,495.84c0-13.74-11.24-24.99-33.52-24.99s-33.52,11.24-33.52,24.99,11.24,24.78,33.52,24.78,33.52-11.24,33.52-24.78Z" fill="#1d1d1b"/><path d="M1066.13,548.73v-105.98h39.56l-5.21,28.53h3.96c6.04-20.82,21.24-31.23,43.31-31.23,31.44,0,49.76,18.12,49.76,56.64v4.37h-40.39v-1.04c0-16.45-9.37-25.82-25.82-25.82s-25.61,9.37-25.61,27.9v46.64h-39.56Z" fill="#1d1d1b"/><path d="M1204.31,526.26c0-14.68,10.7-25.38,26.87-25.38s27.12,10.7,27.12,25.38-10.7,25.38-27.12,25.38-26.87-10.95-26.87-25.38Z" fill="#1d1d1b"/><path d="M843.55,652.91c24.15,2.08,36.44,15.41,36.44,34.98,0,24.15-15.41,39.56-54.55,39.56h-113.27v-145.75h114.31c33.73,0,48.31,14.37,48.31,34.77,0,17.7-11.04,29.98-31.23,32.07v4.37ZM755.48,615.64v23.11h59.55c9.99,0,14.78-4.58,14.78-11.66s-4.79-11.45-14.78-11.45h-59.55ZM819.19,693.51c10.83,0,15.82-5,15.82-12.49s-5-12.7-15.82-12.7h-63.72v25.19h63.72Z" fill="#1d1d1b"/><path d="M896,727.45v-105.98h39.56v105.98h-39.56Z" fill="#1d1d1b"/><path d="M964.52,690.6c0-19.57,13.95-32.9,31.23-34.15v-3.75h-43.1v-28.32h23.32c9.16,0,12.91-3.54,12.91-12.7v-15.2h32.48v26.24h57.89v29.98h-65.59c-6.45,3.12-11.24,9.37-11.24,21.86,0,14.99,7.5,22.49,23.11,22.49s23.11-7.29,23.11-16.45v-2.71h39.77v3.54c0,29.15-19.78,48.93-62.88,48.93s-61.01-18.11-61.01-39.77Z" fill="#1d1d1b"/><path d="M1097.77,674.56c0-30.61,25.19-55.8,72.88-55.8,42.48,0,69.75,19.99,73.08,48.1h-39.77c-2.29-8.74-12.49-17.28-33.31-17.28s-33.32,11.66-33.32,24.99,11.66,24.78,33.32,24.78,31.02-8.54,33.31-17.28h39.77c-3.33,28.11-30.61,48.31-73.08,48.31-47.68,0-72.88-25.4-72.88-55.8Z" fill="#1d1d1b"/><path d="M1258.31,727.45v-145.75h39.56v32.48c0,14.37-2.71,27.49-5.62,38.31h3.96c6.25-22.7,22.7-33.73,48.51-33.73,34.77,0,56.22,21.24,56.22,57.05v51.64h-39.56v-42.27c0-21.24-11.87-33.11-31.86-33.11s-31.65,11.87-31.65,33.11v42.27h-39.56Z" fill="#1d1d1b"/></g><path d="M496.15,175.02s.01,0,.02,0c0,0-.01,0-.02,0,0,0,0,0,0,0Z"/><path d="M434.15,560.06c-.06-.14-.14-.28-.25-.42-.55-.65-1.37-.65-1.96-.06-.67.66-.89,2.33-1.12,3.2-.93,3.56-1.14,7.39-.66,11.08.72,5.53,2.92,11.3,6.11,15.89.46.66,1.52.72,2,.05.67-.92-.18-2.36-.66-3.16-.25-.4-.39-.87-.56-1.31-1.04-2.6-1.83-5.2-2.28-7.98-.73-4.5-1.23-9.03-.72-13.59.07-.64.11-1.28.15-1.92.04-.62.19-1.24-.03-1.81Z"/><path d="M449.38,528.17c-.44.47-.88.92-1.33,1.35-.45.43-.7,1.35-.29,1.89.62.84,1.6.06,2.21-.39,1.41-1.05,2.76-2.18,3.93-3.5.91-1.03,1.62-2.18,2.21-3.42.71-1.49,1.39-3.03,1.77-4.64.29-1.22.2-3.71-1.82-2.88-.65.27-1.02,1.02-1.1,1.69-.03.26,0,.51-.02.77-.22,2.11-1.22,3.95-2.52,5.58-.94,1.18-1.96,2.41-3.02,3.55Z"/><path d="M597.33,701.89c-1.23-.42-2.97-.19-3.98-.14-2.62.12-5.22.55-7.83.77-3.67.31-7.35.52-11.03.52-6.03,0-12.05-.36-18.05-.87-1.55-.13-3.1-.28-4.65-.43-1.23-.12-2.46-.26-3.69-.36-2.35-.17-6.27-1.22-8.33.38-.48.37-.62.92-.41,1.49.62,1.66,3.08,1.48,4.47,1.52,2.25.07,4.51.07,6.75.22,11.94.83,23.91,2.43,35.9,1.49,2.47-.2,4.92-.5,7.37-.87,1.21-.18,2.39-.5,3.52-.98,1.52-.64,1.56-2.19-.05-2.74Z"/><path d="M661.35,418.45c.78,0,2.78.2,2.89-.95.1-1.12-1.35-1.35-2.16-1.46-1.47-.21-2.91-.39-4.35-.79-2.14-.59-4.2-1.42-6.2-2.37-.92-.44-1.85-.87-2.74-1.38-.64-.36-1.38-1.05-2.14-1.1-1.29-.07-1.06,1.15-.52,1.85.4.51.83,1,1.29,1.46,1.67,1.63,3.74,2.83,5.96,3.53,2.4.76,5.3,1.24,7.97,1.21Z"/><path d="M366.63,549.66c-.08.18-.17.35-.25.53-.25.54-.29,1.52.25,1.91,1.08.77,2.99-1.65,3.57-2.37,1.01-1.25,1.78-2.68,2.29-4.2.65-1.92.91-3.95.85-5.97-.03-1.14.12-6.72-2.36-5.45-1.18.6-.84,2.6-.9,3.65-.13,2.24-.24,4.24-.97,6.4-.66,1.95-1.61,3.68-2.49,5.51Z"/><path d="M630.15,457.61c-.16.03-.31.07-.47.14-.65.28-1.03.84-.38,1.38,3.85,3.23,8.54,5.73,13.66,5.88.87.03,1.74-.02,2.6-.12.71-.09,2.03-.12,1.88-1.18-.11-.79-1.17-.91-1.79-1.06s-1.28-.28-1.92-.39c-1.34-.24-2.69-.43-4.02-.72s-2.65-.68-3.87-1.3c-1.58-.79-3.79-2.97-5.69-2.65Z"/><path d="M642.77,456.54c-.34-.21-.81-.32-1.15-.41-.84-.24-1.66-.54-2.46-.89-2.18-.96-4.18-2.28-6.12-3.64-.94-.65-1.82-1.56-2.81-2.12-1.07-.6-1.69.48-1.19,1.34,1.34,2.29,3.41,4.11,5.73,5.37,2.26,1.23,5.1,2.5,7.74,1.98.83-.16.93-1.21.26-1.62Z"/><path d="M465.14,365.72c-.81.36-1.39.91-1.49,1.76-.04.34.02.73.28.98,1.03.99,2.92.28,4.12.05,2.54-.5,5.14-.89,7.72-1.04,1.3-.08,3.94-.12,4.12-1.88.29-2.72-3.29-1.5-4.71-1.3-1.78.25-3.58.57-5.38.68-1.55.1-3.22.12-4.66.76Z"/><path d="M527.16,434.63c-.84.74.12,1.59.93,1.55,2.8-.14,5.53-.89,8.34-.96s5.68.68,8.24,1.88l.36.02c.8.04,1.27-1.03.6-1.57-6.3-5.03-13.37-5.38-18.46-.92Z"/><path d="M588.56,454.58c-1.51-.75-3.19-1.14-4.88-1.08-.89.03-3.45.15-3.46,1.48,0,1.05,1.44,1.1,2.19,1.13,1.4.07,2.43.01,3.74.62.51.23,1.01.5,1.49.78,1.09.65,2.11,1.43,3.03,2.31.53.51.98,1.45,1.71,1.73,1.35.5,1.21-1.33.86-2.14-.92-2.11-2.62-3.81-4.68-4.83Z"/><path d="M696.82,306.31c1.04-15.97-.27-24.55-3.9-25.48-3.64-.94-8.9,5.95-15.67,20.46-5.18,11.09-10.39,25.04-12.67,33.94-.16.61-.3,1.19-.46,1.78-.21.24-.44.46-.68.63-4.89,3.42-8.47,8.31-10.93,14.95-2.95,7.97-5.75,16.2-8.15,23.28-.85,2.52-1.69,5.06-2.52,7.59-4.2,12.78-8.54,25.99-15.83,37.76-3.99,6.44-7.08,13.43-10.07,20.18-1.84,4.15-3.38,8.4-5.02,12.91-.46,1.27-.93,2.57-1.42,3.89-7.74-24.24-19-31.71-40.34-26.64-1.25.3-2.56-.3-3.15-1.44-5.78-11.2-15.5-18.12-28.28-20.08-12.97-2-23.82,2.86-33.1,14.84-.08-.44-.13-.66-.14-.81-.13-1.46-.13-2.27-.14-3.39-.05-9.7-.12-19.4-.2-29.1-.19-24.16-.39-49.13-.06-73.69.16-12.1,1.03-24.18,1.85-36.25.28-3.64.5-7.28.74-10.92.43-6.4.83-12.69.42-19.11-.29-4.5-.12-9.74-2.04-13.92-.17-.37-1.32-1.73-1.29-2.01,1.82-17.77,1.03-67.94-8.43-68.96-.1-.01-.2-.02-.29-.02-9.48,0-20.86,48.78-22.72,66-.28,2.59-.54,5.06-.76,7.41-3.57,4.43-5.9,9.45-6.94,14.97-1.88,10.04-3.44,20.3-4.94,30.23-.38,2.51-.76,5.02-1.15,7.53-3.24,21.07-7,48.9-7.36,77.4-.28,21.76-1.79,43.36-3.07,59.74-1.75,22.31-4.08,44.95-6.33,66.84l-.73,7.15c-.97,9.45-2.27,18.76-3.87,27.66-1.02,5.68-3.54,7.6-9.27,7.13-8.06-.67-16.2-1.07-24.11-2.87-11.56-2.63-22.77-6.91-33.98-10.72h-.03c-7.51-2.57-15.28-5.21-23-7.6-17.16-5.31-31.43-6.17-44.91-2.69-9.62,2.48-19.79,5.31-27.51,11.88-1.69,1.44-3.2,3.11-5.16,4.2s-4.23,1.67-6.49,1.65c-10.47-.27-22.2-.28-32.5.02-32.95.97-33.2,4.31-33.29,5.57s-.35,4.6,32.08,10.52c16.51,3.01,36.92,5.78,49.62,6.74,8.06.61,14.9,1.13,20.47,1.13,4.47,0,8.1-.34,10.89-1.23,5.23.79,9.71,2.47,14.01,5.19,3.57,2.25,7.42,4.17,11.14,6.03,4.86,2.42,9.89,4.93,14.22,8.16,9.44,7.04,19.19,12.69,29.82,17.27,8.4,3.62,17.31,7.7,25.58,12.93,13.32,8.43,24.95,20.05,37.7,37.69,9.71,13.43,20.47,27.4,35.69,37.62,6.28,4.21,10.6,10.69,12.85,19.23,1.63,6.2,2.88,11.72,3.8,16.88,2.39,13.32,4.79,26.87,7.1,39.98,2.48,14.07,5.05,28.61,7.63,42.91.75,4.17,1.59,8.32,2.46,12.46.52,2.49,1.15,4.96,1.66,7.45.26,1.28.48,2.56.65,3.85.13,1.03.14,2.15.76,3.03.61.87,1.96.78,2.35-.27.37-1,.06-2.17-.08-3.18-.54-3.95-1.11-7.89-1.66-11.84-.73-5.16-1.46-10.32-2.19-15.48-3.13-22.09-6.36-44.93-9.92-67.34-.34-2.14-.65-4.3-.96-6.46-1.54-10.73-3.23-21.62-8.34-31.33-.78-1.47-1.51-3.35.82-3.6.37-.04.78.09,1.14.15,4.97.82,10.11.97,15.04-.15,5.26-1.19,9.35-3.87,13.41-7.31.47-.4.96-.76,1.46-1.11,2-1.4,3.71-2.99,5.9-4.14,4.65-2.44,9.92-3.08,14.95-4.32.83-.2,1.83-.58,1.78-1.62-.04-.71-.58-.97-1.17-1.02-.04,0-.07-.02-.11-.02-8.7-.11-17.07,2.93-24.79,9.07-7.56,6.01-15.93,7.64-25.61,4.97-12.3-3.39-23.25-10.55-32.56-21.28-6.78-7.82-13.3-16.11-19.6-24.13-2.6-3.31-5.21-6.62-7.83-9.91-13.09-16.39-28.31-27.93-46.52-35.3-12.18-4.93-22.35-10.19-31.09-16.08-10.33-6.96-20.57-13.6-32.21-18.25l-1.46-.58c-2.23-.88-4.53-1.78-6.63-2.92-1.06-.58-2.08-1.79-2.28-2.71-.12-.56-.25-1.09-.39-1.6.05-.33.1-.66.13-1.01.4-5.3-2.43-8.54-9.19-10.48-3.92-1.13-7.98-1.62-12.02-2.06-5.19-.56-10.39-1.04-15.62-1.12-1.05-.02-2.64.09-3.47-.69-.61-.57,2.13-2.43,2.54-2.71,1.93-1.32,4.01-2.39,6.16-3.31,20.23-8.65,41.24-9.56,62.43-2.72,5.06,1.63,10.12,3.29,15.18,4.94,13.15,4.29,26.76,8.73,40.23,12.8,10.6,3.2,21.83,4.42,32.77,2.3,4.52-.88,8.94-2.34,12.96-4.61,1.64-.93,3.21-1.98,4.69-3.15.48-.38,1.02-.69,1.49-1.1.83-.71,2.03-2.26.57-3.03-1.08-.57-2.65.28-3.61.77-3.2,1.62-6.35,2.65-9.78,3.68.4-1.97.82-3.91,1.24-5.8,2.49-11.42,3.74-23.12,5.08-34.77,1.38-12.05,2.7-24.1,3.83-36.18.38-4.1.74-8.2,1.08-12.31,2.06-25.3,3.43-50.32,4.88-78.06.18-3.42.3-6.83.35-10.25.04-2.47-.07-4.94,0-7.4.1-3.83.34-7.67.47-11.5s.01-7.82.37-11.68c1.11-12.04,2.7-24.03,4.41-35.99,1.64-11.51,3.17-23.06,5.76-34.41.58-2.57,1.23-5.12,1.92-7.65,1.91-6.89,7.07-11.98,14.54-14.31,4.03-1.26,7.81-.98,10.64.79,2.77,1.73,4.56,4.75,5.17,8.74.89,5.78.28,11.71-.12,17.51-.41,6.09-.91,12.18-1.38,18.26-.18,2.25-.35,4.5-.52,6.76-.62,8.21-1.16,16.43-1.44,24.66-.42,12.12-.62,24.26-.72,36.39-.05,6.32-.08,12.64-.1,18.95-.02,7.15-.27,14.29.07,21.43.16,3.45.04,6.91.19,10.36.31,7.08.1,14.2.61,21.27.51,7.06.56,13.89-2.07,20.6-3.16,8.06-3.17,16.94,2.64,23.8.48.57,1.02,1.07,1.23,1.81.06.22.07.45.06.68-.02.48-.04.96-.05,1.44-.2,5.25-.39,10.5-.6,15.75-.05,1.13-.1,2.26-.14,3.39-.1,2.37.36,4.93-.51,7.2-.19.49-.55.95-1.08,1.08-1.58.38-3.58-.71-5.12-1.07-10.01-2.3-20.73-1.31-30.38-5.19-.68-.27-1.38-.5-2.08-.74-.76-.27-1.71-.66-2.48-.34-.72.3-.96,1.01-.21,1.45,4.12,2.46,8.45,4.79,13.17,5.86,3.04.69,6.16.94,9.25,1.28s6.06.96,9.07,1.72c1.69.43,3.41.75,5.09,1.25,1.69.5,3.81,1.17,4.59,2.92.84,1.88.27,4.31.06,6.27-.25,2.42-.55,4.83-.85,7.24-.61,4.76-1.28,9.51-1.84,14.28-.67,5.73-1.36,11.66-2.09,17.49-.78,6.26-1.03,14.17,3.33,21.53-.26,1.29-.52,2.63-.79,4.01-2.04,10.49-3.54,27.75-3.63,41.98-.12,18.55,1.95,28.37,6.14,29.19.18.03.36.05.54.05,9.69,0,25.34-48.42,28.57-65.35l.9-1.18c.9-.42,1.73-1.05,2.47-1.7.42-.37.82-.78,1.19-1.2-2.89,9.13-5.95,22.81-7.65,34.37-2.41,16.42-1.77,25.39,1.88,26.65.29.1.6.15.92.15,3.71,0,9.41-6.71,16.97-19.99,6.28-11.04,12.83-25.04,15.93-34.05.46-1.34.9-2.62,1.32-3.87.74-.53,1.49-1.05,2.24-1.55,2.72-1.84,5.52-3.74,7.44-6.34,4.25-5.76,7.87-12.1,11.37-18.23.75-1.3,1.49-2.61,2.24-3.91l.17-.3c2.41-4.16,3.61-6.25,5.24-6.96,1.65-.72,4.23-.17,8.93.82,10.29,2.17,20.56,2.18,26.81.01.43-.15.68-.6.57-1.04-.11-.44-.53-.73-.98-.66-5.64.81-11.33.4-16.9-.71-2.82-.56-5.6-1.29-8.37-2.09-1.41-.41-2.81-.83-4.21-1.26-1.16-.36-4.08-.57-4.51-1.99-.37-1.23.47-2.6.84-3.74,1.65-5.12,2.67-10.49,4.11-15.68,1.47-5.26,3.09-10.49,5.06-15.59s4.47-10.46,7.44-15.3c1.28-2.09,3.4-6.17,3.19-9.97-.34-6.04.82-12.07,3.64-19.01,1.24-3.05,2.35-6.22,3.42-9.3,2.15-6.16,4.38-12.52,7.72-18.03,8.48-13.98,15.37-29.49,21.05-47.41.44-1.38.87-2.76,1.31-4.14,3.13-9.93,6.36-20.2,10.61-29.8,2.1-4.75,5.5-7.63,9.57-8.12,4.36-.52,8.86,1.78,12.35,6.32,4.93,6.4,6.1,14.02,3.71,23.98-.69,2.87-1.57,5.76-2.42,8.56-1.14,3.75-2.31,7.62-3.07,11.53-6.23,32.19-17.02,66.11-32.97,103.68-1.23,2.89-2.45,7.07-5.19,8.96-2.66,1.84-6.64.42-9.4-.33-2.86-.78-5.7-1.65-8.61-2.22-.65-.13-1.46-.27-2.09.02-2.19,1.02,1.69,2.74,2.41,3.04.9.37,1.81.72,2.72,1.06,3.66,1.36,7.36,3,11.13,4.01,2.14.58,3.13,1.55,2.66,3.83-.67,3.23-.55,6.56-.69,9.84-.14,3.27-.28,6.54-.42,9.82-.6,13.74-1.22,27.94-1.28,41.92-.14,30.07-5.76,59.01-14.17,93.14-1.93,7.84-10.31,10.8-17.11,13.14-9.61,3.31-19.43,5.58-29.56,6.58-2.61.26-5.2.55-7.82.71-.76.05-1.54.12-2.25.39s-1.34.81-1.57,1.58c-1.37,4.41,6.28,3.33,8.41,3.21,5.32-.3,10.62-.92,15.84-1.95,10.28-2.03,21.19-3.92,30.16-9.7,1.45-.93,3.6-3.14,5.49-3.05,1.75.08,2.53,2.21,2.91,3.63.75,2.8,1.25,5.82,1.65,8.69.15,1.1.37,2.19.64,3.26.91,3.68,1.87,7.24,2.19,11.03.36,4.28.6,8.54.66,12.84.08,6.72,1.12,13.36,2.22,19.97.45,2.7.99,5.38,1.44,8.08,1.97,11.74,4.72,23.34,8.38,34.67.78,2.42,1.53,4.85,2.22,7.29.29,1.04.68,2.32,1.87,2.62,1.22.31,1.84-.87,1.82-1.92-.05-2.56-.8-5.03-1.42-7.49-1.35-5.39-2.54-10.81-3.74-16.23-.95-4.27-1.87-8.54-2.69-12.83-2.23-11.65-3.89-23.43-4.38-35.3-.21-4.95-.35-9.91-1.05-14.82-.75-5.23-2.29-10.3-3.14-15.51-1.91-11.73-1.63-23.71-.22-35.48.38-3.19.86-6.36,1.39-9.52.58-3.39,1.21-6.84,1.82-10.17,1.81-9.85,3.69-20.03,4.37-30.15,1.15-17.03,1.52-34.39,1.88-51.17.11-5.33.23-10.66.36-15.98l.05-2.16c.26-10.74.86-21.12,5.45-31,4.56-9.8,8.66-19.8,12.38-29.95,3.72-10.13,7.06-20.41,10.14-30.75,3.15-10.61,6.03-21.3,8.75-32.03,2.82-11.14,5.48-22.33,8.1-33.52.15-.63.29-1.26.44-1.89,1.11-4.78,2.15-10.12,1.39-15.41-.26-2.86-1.01-5.65-2.21-8.25.55-2.02,1.11-4.18,1.69-6.42,2.28-8.9,4.43-23.64,5.23-35.85ZM525.39,568.5c-.43,1.09-1.89,1.13-2.31.6-.27-.35-.15-.84-.08-1.24.44-2.53.84-5.3.4-7.84-.46-2.66-2.11-4.72-4.33-6.19-.29-.19-.4-.55-.29-.87.12-.32.44-.52.78-.48,3.14.36,5.42,1.79,6.58,4.15.95,1.93,1,4.18.61,6.26-.24,1.27-.32,1.92-.65,3.17-.28,1.06-.24,1.26-.71,2.45ZM533.6,563.34c-.65,2.99-1.52,6.08-3.84,8.85.83-4.99,1.28-9.24.9-12.72,0-.03,0-.07-.01-.1-.04-.31-.07-.62-.12-.92-1-6.05-4.78-9.41-12.28-10.87-7.49-1.46-12.26.22-15.46,5.46-1.37,2.24-2.42,5.12-3.35,8.53-.5-3.05-.35-6.07-.01-8.99.48-4.25,1.18-8.56,1.85-12.73.88-5.46,1.79-11.11,2.25-16.72.76-9.39.95-18.96,1.14-28.23.05-2.35.09-4.7.15-7.04l.07-3.18c.35-15.19.71-30.89,4.09-46.04,0-.04,0-.07,0-.11-.03-.69-.22-1.58-.93-1.89-.67-.29-1.4.21-1.79.73-.21.28-.37.59-.53.91-1.24,5.23-2.47,10.46-3.71,15.69-.26,1.11-.52,2.21-.79,3.32-.11.47-.43,3.02-1.12,2.44-.39-.32-.38-.96-.45-1.43-.44-2.94-.12-6.11.35-9.02,1.47-9.09,6.06-18.24,12.91-24.42,1.2-1.08,2.47-2.08,3.79-3,12.55-8.7,28.81-7.34,39.2,3.51,4.8,5,7.13,13.72,5.96,19.73-1.09,5.62-1.46,6.88-2.65,11.89-4,16.79-7.93,33.11-11.86,49.59-3.24,13.56-7.37,26.99-10.24,40.4-1.17,5.46-2.33,10.92-3.52,16.37ZM556.44,578.29c-.89,0-1.55-.94-1.24-2.16.18-.68.36-1.36.55-2.04,1.61-5.84,3-10.88-2.66-15.91-.3-.27-.38-.71-.19-1.07.19-.36.6-.54,1-.44,3.64.94,6.08,3,7.05,5.96.85,2.58.45,5.4-.47,7.9-.58,1.56-.46,1.25-1.65,4.46-.27.73-.37,1.1-.8,2.09-.56,1.28-1.24,1.22-1.58,1.21ZM605.11,482.33c-6.48,11.64-10.27,24.38-13.94,36.7-1.22,4.1-2.48,8.34-3.83,12.47-4.93,15.17-11.93,28.56-20.82,39.79-.67.85-1.48,1.58-2.36,2.31,1.03-3.62,1.65-6.76,1.59-9.44-.08-3.19-1.27-6.1-3.75-8.15-3.65-3.02-9.96-5.67-14.72-4.05-2.14.73-4.1,2.22-5.52,3.95-.71.86-1.37,1.87-2,2.99.06-.3.11-.61.18-.9,3.92-16.57,7.86-33.13,11.8-49.69,3.72-15.65,7.44-31.31,11.15-46.97.59-2.49,1.14-5.02,1.66-7.48.88-4.07,1.78-8.28,2.9-12.34.45-1.62,2.05-3.55,3.44-4.12,6.4-2.64,13.08-2.66,18.8-.07,5.68,2.57,10.02,7.56,12.24,14.05,2.16,6.33,3.81,13.35,4.91,20.89.49,3.36-.19,7.32-1.72,10.08ZM678.51,306.68s0-.02,0-.02c0,0,0,0,.01,0,0,0-.01.01-.02.02ZM304.02,550.87c.55.02,2.17,0,3.53-.04.51-.01.76.59.42.97-.9.96-2.18,1.39-3.67,1.47-5.08.26-10.31-.28-15.4-.42-6.48-.18-13.14-.67-19.53-1.8-.7-.12-1.02-1.03-.49-1.5,2.68-2.32,18.75.86,35.14,1.32Z"/><path d="M460.04,440.49c-.15.22-.25.45-.23.7.16,2.36,3.79-.23,4.55-.61.67-.34,1.32-.72,1.97-1.1,3.87-2.26,8.02-4.04,12.37-5.13,1.17-.29,2.36-.49,3.55-.72,1.06-.2,2.19-.21,3.22-.46.72-.18,1.56-.67,1.52-1.52-.08-1.85-4.01-1.05-5.05-.99-2.4.14-4.8.48-7.13,1.08-2.76.72-5.49,1.86-7.98,3.32-2.33,1.38-5.2,3.16-6.8,5.41Z"/><path d="M482.61,372.29c-1.35-.63-3.17-.38-4.6-.27-1.56.12-3.14.15-4.7.17-.67,0-1.34,0-2.01,0-1.02,0-3.02.27-2.66,1.79.46,1.95,3.37,1.27,4.73,1.18,2.75-.18,5.49-.27,8.22-.63.71-.09,1.69-.57,1.68-1.4,0-.39-.25-.66-.65-.85Z"/><path d="M487.86,308.98c.08.01.15.02.23.04.26.05.47-.07.58-.24.39-.17.69-.53.71-.96.03-.58-.44-1-.9-1.26-.87-.47-1.83-.77-2.8-.93-5.46-1.75-11.7-.78-16.32,2.58-1.01.53-3.32,2.19-1.4,3.13.6.29,1.21.06,1.78-.2.13-.06.26-.12.39-.18.48-.21.98-.4,1.47-.59.7-.26,1.41-.51,2.13-.72,3.72-1.09,7.62-1.43,11.46-1.05.9.09,1.79.21,2.68.38Z"/><path d="M679.57,305.89s0,0,0,0c0,0,.01,0,.02-.01-.01,0-.02,0-.03.01,0,0,0,0,0,0Z"/><path d="M573.91,537.55c-.2-.16-.47-.29-.8-.38-2.62-.66-5.37-.75-8.04-1.12-1.17-.16-3.33-1-4.3.02-1.3,1.38.62,2.48,1.74,2.81,2.63.78,5.4.77,8.08,1.22.58.1,1.16.22,1.74.29,1.81.21,2.81-1.87,1.58-2.84Z"/><path d="M533.74,522.66c-.84-.55-2-.42-2.95-.47-1.12-.07-2.22-.34-3.3-.65-2.41-.7-4.71-1.74-6.94-2.89-.87-.45-1.73-.92-2.58-1.39-.71-.4-2.63-.99-2.31.53.25,1.19,1.97,2.03,2.9,2.64,1.39.92,2.8,1.81,4.35,2.43,2.67,1.08,5.57,1.44,8.44,1.48.67,0,1.48.09,2.12-.16.47-.19.81-.68.58-1.19-.07-.15-.17-.26-.29-.34Z"/><path d="M499.92,459.53c-.05-.09-.02-.03,0,0h0Z"/></g></g></svg>