<svg xmlns="http://www.w3.org/2000/svg" xmlns:xlink="http://www.w3.org/1999/xlink"  viewBox="0 0 128.55 151.711">
  <defs>
    <filter id="Path_2174" x="0" y="0" width="128.55" height="151.711" filterUnits="userSpaceOnUse">
      <feOffset dy="14" input="SourceAlpha"/>
      <feGaussianBlur stdDeviation="8" result="blur"/>
      <feFlood flood-opacity="0.161"/>
      <feComposite operator="in" in2="blur"/>
      <feComposite in="SourceGraphic"/>
    </filter>
    <clipPath id="clip-path">
      <rect id="Rectangle_222" data-name="Rectangle 222" width="49.644" height="65.494" fill="none"/>
    </clipPath>
  </defs>
  <g id="Group_183" data-name="Group 183" transform="translate(-1235.725 -5020.145)">
    <g id="Group_127" data-name="Group 127" transform="translate(178.725 3142.144)">
      <g transform="matrix(1, 0, 0, 1, 1057, 1878)" filter="url(#Path_2174)">
        <path id="Path_2174-2" data-name="Path 2174" d="M40.275,0A40.276,40.276,0,0,0,0,40.275c0,22.243,27.448,63.436,40.275,63.436S80.55,62.519,80.55,40.275A40.275,40.275,0,0,0,40.275,0" transform="translate(24 10)" fill="#e71e6e"/>
      </g>
      <path id="Path_2175" data-name="Path 2175" d="M83.729,49.928A33.357,33.357,0,1,1,50.371,16.57,33.358,33.358,0,0,1,83.729,49.928" transform="translate(1070.836 1878.101)" fill="#fff"/>
      <rect id="Rectangle_599" data-name="Rectangle 599" width="80.551" height="103.711" transform="translate(1081 1888)" fill="none"/>
    </g>
    <g id="Group_182" data-name="Group 182" transform="translate(1271 5040)">
      <g id="Group_53" data-name="Group 53" clip-path="url(#clip-path)">
        <path id="Path_9" data-name="Path 9" d="M299.216,8.319h0" transform="translate(-269.522 -7.493)" fill="#161615"/>
        <path id="Path_10" data-name="Path 10" d="M233.389,392.545a.145.145,0,0,0-.025-.041.126.126,0,0,0-.195-.006.8.8,0,0,0-.111.318,2.906,2.906,0,0,0-.066,1.1,3.67,3.67,0,0,0,.607,1.577.125.125,0,0,0,.2.005c.066-.091-.017-.234-.066-.313a.846.846,0,0,1-.056-.13,3.713,3.713,0,0,1-.226-.792,4.929,4.929,0,0,1-.072-1.349c.007-.064.011-.127.015-.19a.418.418,0,0,0,0-.179" transform="translate(-209.848 -353.507)" fill="#161615"/>
        <path id="Path_11" data-name="Path 11" d="M250.8,350.884c-.043.047-.087.092-.132.134a.157.157,0,0,0-.029.188c.062.083.159.006.219-.039a2.516,2.516,0,0,0,.39-.347,1.448,1.448,0,0,0,.219-.339,2.33,2.33,0,0,0,.175-.461c.028-.121.02-.368-.181-.286a.2.2,0,0,0-.109.168c0,.025,0,.051,0,.076a1.068,1.068,0,0,1-.25.553c-.093.117-.195.239-.3.353" transform="translate(-225.751 -315.011)" fill="#161615"/>
        <path id="Path_12" data-name="Path 12" d="M348.095,534.29a1.146,1.146,0,0,0-.4-.014c-.26.012-.518.055-.777.076-.364.03-.729.052-1.095.052-.6,0-1.2-.035-1.791-.087l-.462-.042c-.122-.012-.244-.026-.366-.035-.233-.017-.622-.121-.826.038a.123.123,0,0,0-.041.147c.061.164.306.147.444.151.224.007.447.007.67.022a24.121,24.121,0,0,0,3.563.148c.245-.019.489-.05.732-.086a1.453,1.453,0,0,0,.35-.1c.151-.063.155-.217,0-.272" transform="translate(-308.359 -481.177)" fill="#161615"/>
        <path id="Path_13" data-name="Path 13" d="M450.32,244.509c.077,0,.276.02.287-.094s-.134-.133-.215-.145a3.452,3.452,0,0,1-.431-.078,3.7,3.7,0,0,1-.615-.236c-.092-.044-.184-.087-.272-.137-.064-.036-.137-.1-.212-.109-.128-.007-.1.114-.052.183a1.406,1.406,0,0,0,.128.145,1.483,1.483,0,0,0,.591.35,2.649,2.649,0,0,0,.791.12" transform="translate(-404.231 -219.525)" fill="#161615"/>
        <path id="Path_14" data-name="Path 14" d="M169.317,368.789l-.025.053a.167.167,0,0,0,.025.189c.107.077.3-.164.354-.235a1.351,1.351,0,0,0,.228-.417,1.693,1.693,0,0,0,.084-.593c0-.114.012-.667-.235-.541-.117.06-.084.258-.089.362a2.284,2.284,0,0,1-.1.635,4.884,4.884,0,0,1-.247.547" transform="translate(-152.476 -330.783)" fill="#161615"/>
        <path id="Path_15" data-name="Path 15" d="M432.146,290.882a.2.2,0,0,0-.047.014c-.065.028-.1.083-.038.137a2.263,2.263,0,0,0,1.355.584,1.706,1.706,0,0,0,.258-.012c.071-.009.2-.012.187-.117-.011-.078-.117-.09-.177-.1s-.127-.028-.191-.039c-.133-.024-.267-.042-.4-.071a1.617,1.617,0,0,1-.384-.129c-.157-.079-.376-.294-.564-.262" transform="translate(-389.154 -262.012)" fill="#161615"/>
        <path id="Path_16" data-name="Path 16" d="M433.307,283.33a.474.474,0,0,0-.114-.041,1.861,1.861,0,0,1-.244-.089,3.644,3.644,0,0,1-.608-.361c-.093-.065-.181-.155-.279-.21s-.168.048-.118.133a1.464,1.464,0,0,0,.569.533,1.213,1.213,0,0,0,.768.2.087.087,0,0,0,.026-.161" transform="translate(-389.062 -254.565)" fill="#161615"/>
        <path id="Path_17" data-name="Path 17" d="M266.857,197.333a.219.219,0,0,0-.148.174.117.117,0,0,0,.028.1c.1.1.29.028.409,0a5.8,5.8,0,0,1,.766-.1c.129-.008.391-.012.409-.187.028-.27-.327-.149-.468-.129-.177.025-.355.056-.533.067a1.345,1.345,0,0,0-.463.075" transform="translate(-240.24 -177.581)" fill="#161615"/>
        <path id="Path_18" data-name="Path 18" d="M329.936,265.129c-.084.073.012.158.092.154.278-.014.549-.089.827-.095a1.843,1.843,0,0,1,.817.187l.036,0a.088.088,0,0,0,.059-.156,1.371,1.371,0,0,0-1.832-.091" transform="translate(-297.164 -238.539)" fill="#161615"/>
        <path id="Path_19" data-name="Path 19" d="M384.117,286.9a1.014,1.014,0,0,0-.484-.108c-.088,0-.343.015-.343.147,0,.1.143.109.217.112a.881.881,0,0,1,.371.061,1.57,1.57,0,0,1,.148.078,1.631,1.631,0,0,1,.3.23c.053.051.1.144.17.172.134.05.12-.132.085-.213a.977.977,0,0,0-.464-.479" transform="translate(-345.252 -258.332)" fill="#161615"/>
        <path id="Path_20" data-name="Path 20" d="M49.61,13.855c.1-1.585-.027-2.436-.387-2.528s-.883.591-1.556,2.03a22.235,22.235,0,0,0-1.257,3.368l-.045.177a.383.383,0,0,1-.068.062,3,3,0,0,0-1.084,1.484c-.293.791-.571,1.608-.809,2.311-.085.25-.167.5-.25.753a17.182,17.182,0,0,1-1.571,3.748,16.327,16.327,0,0,0-1,2c-.182.412-.336.834-.5,1.281-.046.127-.093.255-.141.386-.768-2.406-1.885-3.147-4-2.643a.279.279,0,0,1-.312-.143,3.653,3.653,0,0,0-2.806-1.993,3.312,3.312,0,0,0-3.285,1.472c-.008-.043-.013-.065-.014-.081-.013-.145-.013-.226-.013-.337q-.007-1.444-.02-2.888c-.019-2.4-.039-4.876-.006-7.313.016-1.2.1-2.4.184-3.6.028-.361.049-.723.073-1.084a14.486,14.486,0,0,0,.042-1.9,3.963,3.963,0,0,0-.2-1.381c-.017-.037-.131-.171-.128-.2.181-1.764.1-6.742-.837-6.844h-.029c-.941,0-2.07,4.841-2.255,6.55-.028.257-.054.5-.075.736a3.315,3.315,0,0,0-.689,1.486c-.187,1-.341,2.015-.49,3q-.057.374-.114.747a55.893,55.893,0,0,0-.731,7.682c-.027,2.16-.177,4.3-.3,5.929-.173,2.214-.4,4.461-.628,6.634l-.073.709c-.1.938-.226,1.862-.384,2.745-.1.563-.351.755-.92.707a17.076,17.076,0,0,1-2.393-.285,34.048,34.048,0,0,1-3.372-1.064h0c-.746-.254-1.517-.516-2.282-.753a7.952,7.952,0,0,0-4.457-.267,6.671,6.671,0,0,0-2.73,1.179,3.355,3.355,0,0,1-.512.417,1.3,1.3,0,0,1-.644.163c-1.039-.027-2.2-.028-3.225,0-3.27.1-3.295.428-3.3.553s-.035.457,3.183,1.044c1.639.3,3.664.574,4.925.669.8.061,1.479.112,2.031.112a3.689,3.689,0,0,0,1.081-.122,3.506,3.506,0,0,1,1.391.515c.354.223.736.414,1.106.6a9.267,9.267,0,0,1,1.411.81,14.513,14.513,0,0,0,2.959,1.714,18.219,18.219,0,0,1,2.539,1.283,13.618,13.618,0,0,1,3.742,3.74,14.446,14.446,0,0,0,3.542,3.734,3.177,3.177,0,0,1,1.275,1.909c.162.615.285,1.163.377,1.675.238,1.322.475,2.667.7,3.967.246,1.4.5,2.84.757,4.259.075.414.158.825.244,1.237.052.247.115.492.165.739.026.127.048.254.064.382a.639.639,0,0,0,.076.3.132.132,0,0,0,.233-.026.671.671,0,0,0-.008-.316c-.053-.392-.11-.783-.165-1.175q-.108-.768-.217-1.536c-.31-2.192-.631-4.459-.984-6.683-.034-.213-.064-.427-.1-.641a9.427,9.427,0,0,0-.828-3.109c-.077-.146-.149-.332.081-.358a.435.435,0,0,1,.113.015,3.9,3.9,0,0,0,1.493-.015,3.073,3.073,0,0,0,1.331-.725c.046-.039.1-.076.145-.111a5.5,5.5,0,0,1,.586-.41,6.4,6.4,0,0,1,1.484-.429c.082-.02.182-.058.177-.16,0-.07-.058-.1-.116-.1l-.011,0a3.825,3.825,0,0,0-2.46.9,2.688,2.688,0,0,1-2.541.494,6.573,6.573,0,0,1-3.231-2.112c-.673-.776-1.32-1.6-1.945-2.395q-.387-.493-.778-.984a11.165,11.165,0,0,0-4.616-3.5,16.646,16.646,0,0,1-3.085-1.6,17.111,17.111,0,0,0-3.2-1.811l-.145-.057a5.84,5.84,0,0,1-.658-.29.489.489,0,0,1-.226-.269c-.012-.055-.025-.108-.039-.159.005-.033.01-.066.013-.1.04-.526-.242-.847-.913-1.04a7.047,7.047,0,0,0-1.193-.2c-.515-.056-1.032-.1-1.55-.111-.1,0-.262.009-.345-.069-.061-.057.212-.241.252-.269a3.528,3.528,0,0,1,.611-.328,8.615,8.615,0,0,1,6.2-.27q.754.243,1.507.49c1.306.426,2.655.866,3.992,1.271a6.783,6.783,0,0,0,3.252.228,4.265,4.265,0,0,0,1.286-.458,3.568,3.568,0,0,0,.465-.313c.048-.038.1-.069.148-.109.082-.07.2-.224.056-.3-.108-.057-.263.028-.358.076a5.8,5.8,0,0,1-.971.365c.04-.2.082-.388.123-.576.247-1.134.371-2.295.5-3.45.137-1.2.268-2.392.38-3.59q.057-.61.107-1.222c.2-2.51.34-4.993.484-7.746q.027-.508.035-1.018c0-.245-.007-.49,0-.735.01-.381.034-.761.047-1.142s0-.776.037-1.159c.11-1.195.268-2.384.437-3.572.163-1.142.315-2.288.571-3.414q.087-.382.191-.759a2.057,2.057,0,0,1,1.443-1.42A1.265,1.265,0,0,1,29.734,7a1.187,1.187,0,0,1,.513.868,7.931,7.931,0,0,1-.012,1.738c-.041.6-.09,1.208-.137,1.812q-.026.335-.051.67c-.061.815-.115,1.63-.143,2.447-.042,1.2-.061,2.407-.072,3.611q-.008.941-.01,1.881c0,.709-.027,1.418.007,2.127.016.342,0,.685.019,1.028.031.7.01,1.409.06,2.111a4.549,4.549,0,0,1-.205,2.044,2.263,2.263,0,0,0,.262,2.362.505.505,0,0,1,.122.18.211.211,0,0,1,.006.067q0,.071-.005.143c-.02.521-.038,1.042-.06,1.563,0,.112-.01.225-.014.337a2.233,2.233,0,0,1-.051.715.163.163,0,0,1-.107.107c-.157.037-.355-.071-.508-.106a19.372,19.372,0,0,1-3.015-.515c-.068-.027-.137-.05-.206-.074a.365.365,0,0,0-.246-.034c-.071.03-.1.1-.021.144a4.589,4.589,0,0,0,1.307.581,8.227,8.227,0,0,0,.918.127,6.522,6.522,0,0,1,.9.171c.168.043.339.074.5.124s.378.116.455.289a1.261,1.261,0,0,1,.006.622c-.025.24-.054.479-.085.718-.06.472-.127.944-.183,1.417-.066.569-.135,1.158-.208,1.736a3.277,3.277,0,0,0,.33,2.137q-.038.193-.078.4a25.864,25.864,0,0,0-.36,4.166c-.012,1.841.193,2.816.61,2.9a.275.275,0,0,0,.053.005c.962,0,2.515-4.8,2.836-6.486l.089-.117a1.1,1.1,0,0,0,.245-.169,1.186,1.186,0,0,0,.118-.119,24.118,24.118,0,0,0-.759,3.411c-.239,1.63-.176,2.519.187,2.644a.277.277,0,0,0,.091.015c.368,0,.934-.666,1.684-1.984A23.074,23.074,0,0,0,36.1,41.432c.046-.132.089-.26.131-.384.073-.052.148-.1.222-.154a2.909,2.909,0,0,0,.738-.629,18.406,18.406,0,0,0,1.129-1.809q.111-.194.222-.388l.017-.03c.239-.413.359-.621.52-.691a1.763,1.763,0,0,1,.886.082,5.491,5.491,0,0,0,2.661,0,.087.087,0,0,0-.041-.169,4.958,4.958,0,0,1-1.677-.071c-.28-.056-.556-.128-.83-.208-.14-.04-.279-.083-.418-.125-.115-.036-.4-.056-.447-.2-.037-.122.046-.258.083-.371.164-.508.265-1.041.408-1.556s.306-1.041.5-1.547a9.313,9.313,0,0,1,.738-1.519,1.888,1.888,0,0,0,.316-.99,4.266,4.266,0,0,1,.361-1.886c.123-.3.233-.618.34-.922a9.468,9.468,0,0,1,.766-1.789,21.48,21.48,0,0,0,2.09-4.705l.13-.411A28.506,28.506,0,0,1,46,18.006a1.231,1.231,0,0,1,.95-.806,1.382,1.382,0,0,1,1.226.627,2.635,2.635,0,0,1,.368,2.38c-.069.285-.156.572-.24.849A11.5,11.5,0,0,0,48,22.2a51.319,51.319,0,0,1-3.272,10.29,2,2,0,0,1-.515.889c-.264.182-.659.042-.933-.033s-.566-.163-.855-.221a.351.351,0,0,0-.207,0c-.217.1.168.272.239.3.089.037.179.071.27.1.363.135.73.3,1.1.4.212.057.311.154.264.38a6.009,6.009,0,0,0-.068.976q-.02.487-.042.974c-.059,1.363-.121,2.773-.127,4.16a38.84,38.84,0,0,1-1.407,9.243c-.192.778-1.023,1.071-1.7,1.3a12.837,12.837,0,0,1-2.933.653c-.259.025-.517.054-.776.07a.754.754,0,0,0-.224.039.249.249,0,0,0-.156.157c-.136.438.623.331.834.319a11.408,11.408,0,0,0,1.572-.194,8.444,8.444,0,0,0,2.993-.962c.144-.093.357-.311.545-.3s.251.22.289.36a7.166,7.166,0,0,1,.164.862,3.178,3.178,0,0,0,.063.324,6.967,6.967,0,0,1,.217,1.094c.036.425.06.847.065,1.274a13.109,13.109,0,0,0,.221,1.982c.045.268.1.534.143.8a24.171,24.171,0,0,0,.832,3.441c.078.24.152.481.221.724.029.1.067.23.185.26s.183-.087.181-.19a3.369,3.369,0,0,0-.141-.744c-.134-.535-.252-1.072-.371-1.611-.094-.424-.186-.847-.267-1.273a24.048,24.048,0,0,1-.435-3.5,14.576,14.576,0,0,0-.1-1.471c-.075-.519-.227-1.022-.312-1.539a12.612,12.612,0,0,1-.022-3.521c.038-.316.085-.631.138-.945.057-.336.12-.678.181-1.009a26.581,26.581,0,0,0,.433-2.992c.114-1.69.151-3.413.186-5.079q.017-.793.036-1.586l.005-.214a7.505,7.505,0,0,1,.541-3.077c.452-.972.859-1.965,1.229-2.972s.7-2.025,1.006-3.052c.313-1.053.6-2.114.868-3.178.28-1.106.544-2.216.8-3.327l.044-.188a4.174,4.174,0,0,0,.137-1.529,2.473,2.473,0,0,0-.22-.819c.055-.2.11-.414.167-.638a22.245,22.245,0,0,0,.519-3.558M32.6,39.876a.148.148,0,0,1-.229.059.154.154,0,0,1-.008-.123,2.315,2.315,0,0,0,.039-.779.931.931,0,0,0-.429-.614.074.074,0,0,1,.049-.135.776.776,0,0,1,.653.412.994.994,0,0,1,.06.622c-.024.126-.032.19-.064.314a1.449,1.449,0,0,1-.071.244m.815-.512a1.933,1.933,0,0,1-.381.878,4.859,4.859,0,0,0,.09-1.263s0-.007,0-.01c0-.031-.007-.061-.012-.091-.1-.6-.474-.933-1.218-1.078a1.286,1.286,0,0,0-1.534.542,3.324,3.324,0,0,0-.332.847,3.212,3.212,0,0,1,0-.892c.048-.422.117-.849.184-1.263.087-.542.178-1.1.223-1.659.076-.931.095-1.882.113-2.8q.007-.35.015-.7l.007-.315a23.409,23.409,0,0,1,.406-4.569s0-.007,0-.011a.2.2,0,0,0-.093-.188.161.161,0,0,0-.178.072.512.512,0,0,0-.052.09l-.368,1.557-.078.33c-.011.047-.043.3-.111.242-.038-.032-.038-.1-.045-.142a2.954,2.954,0,0,1,.035-.9,4.246,4.246,0,0,1,1.281-2.423,3.738,3.738,0,0,1,.376-.3,2.973,2.973,0,0,1,3.891.348,2.452,2.452,0,0,1,.592,1.958c-.108.557-.145.683-.263,1.179-.4,1.666-.787,3.286-1.177,4.921-.321,1.346-.731,2.679-1.016,4.009q-.174.812-.35,1.624m2.267,1.484c-.088,0-.154-.094-.123-.215.018-.068.036-.135.054-.2.16-.58.3-1.08-.264-1.579a.087.087,0,0,1,.08-.15.921.921,0,0,1,.7.591,1.2,1.2,0,0,1-.047.784l-.164.442c-.027.072-.037.109-.08.207-.055.127-.123.121-.157.12m4.83-9.523a17.839,17.839,0,0,0-1.384,3.642c-.121.407-.247.828-.38,1.238a12.6,12.6,0,0,1-2.067,3.949,1.531,1.531,0,0,1-.235.229,3.272,3.272,0,0,0,.158-.937,1.051,1.051,0,0,0-.372-.809,1.707,1.707,0,0,0-1.461-.4,1.253,1.253,0,0,0-.548.392,2.084,2.084,0,0,0-.2.3c.006-.03.01-.06.017-.09q.584-2.466,1.171-4.931.554-2.33,1.107-4.661c.058-.247.113-.5.165-.742.087-.4.177-.822.288-1.225a.709.709,0,0,1,.341-.409,2.233,2.233,0,0,1,3.081,1.387,11.658,11.658,0,0,1,.487,2.073,1.686,1.686,0,0,1-.171,1m7.284-17.432v0h0l0,0M10.627,38.126c.055,0,.216,0,.351,0a.056.056,0,0,1,.041.1.514.514,0,0,1-.364.146c-.5.025-1.024-.028-1.528-.042a13.259,13.259,0,0,1-1.938-.179.088.088,0,0,1-.048-.149c.266-.23,1.861.085,3.487.131" transform="translate(0 0)" fill="#161615"/>
        <path id="Path_21" data-name="Path 21" d="M262.9,264.752a.108.108,0,0,0-.023.07c.015.234.376-.023.452-.061s.131-.071.2-.109a4.69,4.69,0,0,1,1.228-.509c.116-.029.234-.049.352-.071s.217-.021.32-.046c.072-.018.155-.067.151-.151-.007-.184-.4-.1-.5-.1a3.668,3.668,0,0,0-.708.108,3.125,3.125,0,0,0-.792.33,2.209,2.209,0,0,0-.674.536" transform="translate(-236.785 -237.58)" fill="#161615"/>
        <path id="Path_22" data-name="Path 22" d="M273.048,205.228a.966.966,0,0,0-.457-.027c-.155.012-.311.015-.467.017h-.2c-.1,0-.3.027-.264.178.046.193.334.126.469.117.273-.018.545-.027.816-.063.07-.009.168-.056.167-.139a.1.1,0,0,0-.065-.084" transform="translate(-244.697 -184.824)" fill="#161615"/>
        <path id="Path_23" data-name="Path 23" d="M272.329,138.489l.023,0a.054.054,0,0,0,.058-.024.114.114,0,0,0,.071-.1.145.145,0,0,0-.09-.125.876.876,0,0,0-.278-.093,1.84,1.84,0,0,0-1.62.256c-.1.053-.33.217-.139.311a.2.2,0,0,0,.176-.019l.039-.018c.048-.021.1-.04.146-.058.07-.026.14-.051.211-.072a3,3,0,0,1,1.137-.1c.089.009.178.021.266.038" transform="translate(-243.457 -124.368)" fill="#161615"/>
        <path id="Path_24" data-name="Path 24" d="M482.637,139.184h0" transform="translate(-434.739 -125.37)" fill="#161615"/>
        <path id="Path_25" data-name="Path 25" d="M364.743,369.078a.21.21,0,0,0-.08-.037,7.524,7.524,0,0,0-.8-.111c-.116-.016-.331-.1-.427,0-.129.137.061.246.172.279a6.509,6.509,0,0,0,.8.121c.057.009.115.022.173.028.18.021.279-.186.157-.282" transform="translate(-327.332 -332.273)" fill="#161615"/>
        <path id="Path_26" data-name="Path 26" d="M320.488,350.688a.6.6,0,0,0-.293-.047,1.513,1.513,0,0,1-.327-.065,3.807,3.807,0,0,1-.689-.287c-.086-.045-.171-.091-.256-.138s-.261-.1-.23.053c.025.119.2.2.288.262a2.5,2.5,0,0,0,.432.242,2.316,2.316,0,0,0,.837.147.57.57,0,0,0,.21-.016.089.089,0,0,0,.057-.118.079.079,0,0,0-.029-.033" transform="translate(-287.063 -315.362)" fill="#161615"/>
        <path id="Path_27" data-name="Path 27" d="M302.963,292.789c-.005-.009,0,0,0,0" transform="translate(-272.894 -263.728)" fill="#161615"/>
      </g>
    </g>
  </g>
</svg>
