<?xml version="1.0" encoding="UTF-8"?><svg id="Vrstva_1" xmlns="http://www.w3.org/2000/svg" width="660" height="660" viewBox="0 0 660 660"><rect x="-4588.39" y="-5164.16" width="5492" height="12371" fill="#252523"/><path d="M559.91,352.48c29.2-3.29,61.51-8.93,83.7-29.21-10.67,3.35-20.03,9.59-30.74,13.04-26.75,8.61-53.41,8.83-80.23.54,9.6-10.88,19.65-21.7,26.86-34.44.97-1.71,4.25-4.92,1.38-6.41-45.74,45.25-112.96,75.38-176.15,86.67-114.56,20.47-217.24-26.84-331.5,13.09-10.68,3.73-23.77,8.06-32.61,15.07,21.11-5.32,41.99-14.19,64.25-13.62,0,5.43.24,10.87-.26,16.31-1.07,11.68-6.25,22.85-6.57,34.31l9.14-14.22,11.29-30.54-5.8,48.65,17.48-52.55-3.85,58.39,7.21-19.04,8.32-37.4c1.94,18.04-1.59,34.73-3.31,52.16-.21,2.14-2.31,6.62,1.36,6.22l11.71-46.71v54.51l4.94-15.5c2.65-12.34,3.42-25.04,5.36-37.47.36-2.3.48-9.44,3.3-9.32l1.97,61.34,1.93,6.78,7.79-68.12,1.98,35.99,5.8,39.92c1.52-22.32,1.05-44.83,1.97-67.18.1-2.36-1.47-7.24,1.93-6.78l9.78,73.96c3.38.47,1.83-4.43,1.92-6.78.38-10.17.37-21.09.09-31.26-.22-7.87-3.15-15.17-2.04-23.31.48-3.49-.72-3.18,3.89-2.87l11.67,70.07c1.67-14.72-1.46-29.49-2.02-43.7-.25-6.3-.17-13.27.09-19.58.1-2.36-1.47-7.24,1.93-6.79l13.63,73.96c1.13-22.43-2.53-44.76-3.95-67.08-.14-2.26-1.4-10.78,2.01-10.78,3.01,24.71,8.42,51.61,14.66,75.9.57,2.21-.12,6.32,2.86,5.85-.35-23.81-6-47.49-7.74-71.08-.16-2.16-1.56-9.05,1.9-8.72l17.56,83.7c3.45-.58,2.17-10.12,2.01-12.73-1.1-18.23-6.5-36.39-7.84-54.46-.16-2.16-1.57-9.05,1.9-8.72l19.51,81.75c3.47.33,2.06-6.56,1.9-8.72-1.63-21.75-8.28-43.3-11.13-64.82-.28-2.12-2.15-6.71,1.41-6.27l21.46,79.8c3.46.34,2.06-6.57,1.89-8.71-.47-5.85-13.99-65.23-10.67-65.28l24.32,73.99c1.13-23.49-9.62-47.11-13.13-69.6-.32-2.08-2.07-6.76,1.44-6.3l27.3,79.8c3.48.44,1.89-4.37,1.68-6.54-2.32-24.46-15.59-47.03-16.31-71.34l34.09,79.83c3.63.45,1.44-3.91,1.06-5.92-4.64-24.93-17.92-47.14-22.48-71.93l40.85,75.91-25.27-72.01,39.97,64.16c2.07,2.89,3.43,3.11,2.86-.91-2.43-17.12-22.07-46.01-28.73-64.73-1.4-3.93-7.16-15.37-2.46-17.99,8.88,32.39,30.6,61.86,51.62,87.59,1.47.3,1.25-1.87.93-2.87-7.39-23.7-31-49.74-38.06-74.88-.53-1.88-2.47-6.43,1.08-5.94,10.77,30.97,33,59.32,56.47,81.75-9.71-25.19-29.32-45.16-39.93-70.05-1.3-3.06-7.64-13.6-2.91-15.6,12.37,33.08,37.38,59.53,62.31,83.7-9.47-21.32-25.82-38.89-37.31-59.05-3.17-5.56-8.38-14.98-10.45-20.71-.66-1.84-2.57-6.34,1.03-5.89,4.75,13.9,13.7,27.1,22.61,38.72,6.61,8.61,31.78,37.4,39.68,42.09,1.42.84,2,1.35,3.92.92-18.15-25.94-45.75-46.86-52.55-79.8,8.54,10.83,14.62,23.27,23.4,34.01,3.85,4.71,45.66,46.96,48.59,43.86-4.08-11.08-15.27-18.7-22.4-27.23-14.22-17.02-30.88-36.47-35.97-58.42l21.45,32.06c3.71,7.83,58.34,51.31,62.24,47.74-17.2-22.91-45.83-40.08-59.66-65.89-1.43-2.66-3.46-4.44-2.62-8.06l18.46,25.32c19.44,19.35,43.71,32.8,69.13,42.79-27.01-25.88-64.86-42.46-75.91-81.75,7.22,7.5,11.38,17.62,18.46,25.33,19.86,21.61,52.47,35.5,79.81,44.79l-35.84-20.63c-17.9-12.49-38.24-27.9-44.91-49.49,28.93,34.88,70.96,53.73,115.8,58.43,3.08-1.99-1.54-2.47-2.91-2.9-31.06-9.7-62.03-18.35-85.44-43.09-3.87-4.09-11.98-13.75-10.92-18.28,24.4,28.09,59.01,41.05,95.43,44.74l18.46-1.9c-38.13-1.52-78.08-18.85-101.22-49.67l29.79,16.93c25.94,9.89,53.11,17.03,81.17,15.18-3.57-6.55-14.33-3.17-21.85-4.41-23.76-3.92-49.29-11.79-67.7-27.7l45.74,14.61h46.73c.48,0,9.32-1.91,8.75-3.87-30.93.11-67.17-2.52-91.49-23.36,33.79,15.46,69.77,16.69,105.12,5.8-.84-5.4-9.4.02-10.7.02h-36.99c-7.4,0-20.67-5.3-28.66-6.39l-15.14-7.22c29.49,7.94,62.25,9.02,91.41-1.07,5.01-1.73,13.04-3.97,15.65-8.66-29.33,10.27-61.37,10.12-91.49,3.85,1.44-5.58,11.05.02,12.64.02h31.15c9.51,0,42.74-11.28,51.63-16.51,2.13-1.25,5.34-1.98,5.8-4.89-19.89,6.29-40.21,12.32-61.24,13.69-2.58.17-12.16,1.44-12.72-2Z" fill="#e71e6e"/><path d="M154.02,273.46h154.11v43.72H96.47v-37.35c0-105.97,157.16-43.44,157.16-92.41,0-12.45-10.51-22.96-50.08-22.96-36.52,0-50.08,13.83-50.08,30.99v4.98h-59.76v-6.09c0-42.89,31.54-74.7,109.84-74.7s109.84,29.6,109.84,65.3c0,97.67-154.11,33.76-159.37,88.54Z" fill="#e71e6e"/><path d="M344.1,317.17V123.49h100.16c78.85,0,120.36,41.78,120.36,96.84s-41.5,96.84-120.36,96.84h-100.16ZM403.86,269.03h40.4c40.12,0,60.59-20.75,60.59-48.7s-20.47-48.7-60.59-48.7h-40.4v97.39Z" fill="#e71e6e"/></svg>