<?xml version="1.0" encoding="UTF-8"?><svg id="Vrstva_1" xmlns="http://www.w3.org/2000/svg" width="660" height="660" viewBox="0 0 660 660"><rect x="-4588.39" y="-324.16" width="5492" height="12371" fill="#252523"/><path d="M405.81,171.29l26.45-52.9,26.45,52.9,52.9,26.45-52.9,26.45-26.45,52.9-26.45-52.9-52.9-26.45,52.9-26.45ZM194.19,277.1l52.9-105.81,52.9,105.81,105.81,52.9-105.81,52.9-52.9,105.81-52.9-105.81-105.81-52.9,105.81-52.9ZM432.26,382.9l26.45,52.9,52.9,26.45-52.9,26.45-26.45,52.9-26.45-52.9-52.9-26.45,52.9-26.45,26.45-52.9Z" fill="#e71e6e"/></svg>