<?xml version="1.0" encoding="UTF-8"?><svg id="Vrstva_1" xmlns="http://www.w3.org/2000/svg" width="660" height="660" viewBox="0 0 660 660"><rect x="-4588.39" y="-3296.16" width="5492" height="12371" fill="#252523"/><path d="M174.97,381.2v-4.47h87.77v2.03c0,15.85,13.41,30.48,69.08,30.48,52.42,0,69.08-16.66,69.08-36.98s-16.66-36.98-71.93-36.98c-49.98,0-67.46,10.97-73.14,19.51h-84.52l19.91-169.86h287.7v64.2h-223.5l-9.35,69.89h6.5c10.97-21.13,38.2-39.42,106.87-39.42,92.24,0,129.22,37.38,129.22,93.46,0,61.36-40.64,102-157.26,102s-156.45-40.64-156.45-93.87Z" fill="#e71e6e"/></svg>