<?xml version="1.0" encoding="UTF-8"?><svg id="Vrstva_1" xmlns="http://www.w3.org/2000/svg" width="660" height="660" viewBox="0 0 660 660"><rect x="-4588.39" y="-2507.16" width="5492" height="12371" fill="#252523"/><path d="M385.81,149.79l8.2-16.4,8.2,16.4,16.4,8.2-16.4,8.2-8.2,16.4-8.2-16.4-16.4-8.2,16.4-8.2ZM320.19,182.6l16.4-32.81,16.4,32.81,32.81,16.4-32.81,16.4-16.4,32.81-16.4-32.81-32.81-16.4,32.81-16.4ZM394.01,215.4l8.2,16.4,16.4,8.2-16.4,8.2-8.2,16.4-8.2-16.4-16.4-8.2,16.4-8.2,8.2-16.4Z" fill="#e71e6e"/><path d="M562.74,465.9c-.34-.21-32.31-21.58-81.45-58.18-30.7-22.85-65.04-44.26-86.79-57.32,2.9,3.36,5.69,6.89,8.32,10.57-2.63-3.67-5.42-7.2-8.32-10.56-5.29-6.2-10.88-11.84-16.1-17-48.51-48.05-92.68-81.75-135.22-103.09-15.42-7.7-34.69-17.37-51.05-1.73-11.75,11.23-15.13,29.5-14.41,42.87.46,8.09,3.05,17.13,7.33,26.49,1.02,2.31,2.19,4.63,3.42,6.96-1.24-2.33-2.4-4.65-3.42-6.95-8.4,21.37-14.63,60.46,18.87,108.21,40.83,58.21,121.14,120.08,174.31,160.99,12.21,9.46,22.77,17.6,31.08,24.3.8.64,1.74.97,2.67.97,1.23,0,2.45-.55,3.3-1.61,1.48-1.78,1.19-4.45-.64-5.93-8.39-6.83-18.99-14.97-31.25-24.42-52.75-40.62-132.42-102.02-172.53-159.17-28.19-40.19-26.75-72.92-20.69-93.19,0,0,0,0,0,0,20.15,35.99,61.73,75.03,101.51,91.07,12.46,5.05,25.15,7.04,37.32,7.04,31.71,0,60.13-13.4,73.34-20.77,3.05-1.74,5.35-4.67,6.23-8.1.3-1.1.42-2.21.42-3.31,0-1.89-.42-3.84-1.3-5.58,20.22,12.55,45.41,28.91,68.51,46.13,49.35,36.72,81.49,58.21,81.83,58.43.72.46,1.53.72,2.33.72,1.35,0,2.71-.68,3.52-1.91,1.31-1.95.8-4.58-1.15-5.89h0Z" fill="#e71e6e"/><path d="M184.61,246.84l84,15,72,36S173.61,156.84,67.61,138.84c-26.55-4.51,84.48,135.7,101,156,105,129,140,73,140,73" fill="#e71e6e"/></svg>