<svg xmlns="http://www.w3.org/2000/svg" version="1.1" xmlns:xlink="http://www.w3.org/1999/xlink" xmlns:svgjs="http://svgjs.dev/svgjs" width="1024" height="1024"><svg xmlns="http://www.w3.org/2000/svg" xmlns:xlink="http://www.w3.org/1999/xlink" width="1024" height="1024" viewBox="0 0 1024 1024"><defs><clipPath id="SvgjsClipPath1013"><rect width="1024" height="1024"></rect></clipPath></defs><g id="SvgjsG1012" clip-path="url(#b)"><circle cx="512" cy="512" r="512" fill="#e71e6e"></circle><g transform="translate(-7333.347 -13110.765)"><path d="M299.219,8.322l.03.007a.138.138,0,0,0-.033-.01l0,0" transform="translate(7528.264 13138.743)"></path><path d="M239.246,393.8a2.2,2.2,0,0,0-.368-.616,1.875,1.875,0,0,0-2.9-.084c-.984.974-1.322,3.438-1.66,4.735a43.288,43.288,0,0,0-.979,16.379,54.671,54.671,0,0,0,9.039,23.493,1.855,1.855,0,0,0,2.954.077c.986-1.361-.26-3.489-.983-4.667a12.5,12.5,0,0,1-.832-1.932,55.291,55.291,0,0,1-3.372-11.79c-1.086-6.655-1.826-13.356-1.067-20.089.106-.948.163-1.885.223-2.835a6.228,6.228,0,0,0-.052-2.67" transform="translate(7496.583 13322.444)"></path><path d="M253.321,367.093c-.645.695-1.3,1.366-1.962,2a2.336,2.336,0,0,0-.435,2.8c.917,1.236,2.362.089,3.261-.581a37.5,37.5,0,0,0,5.8-5.175,21.564,21.564,0,0,0,3.267-5.051,34.736,34.736,0,0,0,2.611-6.862c.423-1.8.3-5.484-2.692-4.256a3.047,3.047,0,0,0-1.622,2.5c-.043.377,0,.757-.034,1.131a15.915,15.915,0,0,1-3.731,8.243c-1.391,1.738-2.9,3.564-4.467,5.254" transform="translate(7505.026 13302.007)"></path><path d="M428.169,535.674c-1.817-.624-4.395-.279-5.888-.21-3.877.179-7.713.816-11.577,1.138-5.424.451-10.863.768-16.309.77-8.908,0-17.81-.526-26.683-1.289q-3.439-.295-6.877-.633c-1.817-.177-3.629-.392-5.45-.526-3.475-.259-9.263-1.8-12.308.56a1.834,1.834,0,0,0-.6,2.2c.911,2.449,4.554,2.183,6.609,2.242,3.329.1,6.661.1,9.984.328,17.653,1.224,35.349,3.594,53.065,2.2,3.65-.288,7.279-.745,10.9-1.282a21.69,21.69,0,0,0,5.208-1.444c2.247-.939,2.31-3.233-.068-4.05" transform="translate(7548.883 13390.226)"></path><path d="M471.9,255.6c1.153-.012,4.109.3,4.268-1.4.154-1.66-1.994-1.988-3.2-2.16a51.506,51.506,0,0,1-6.423-1.166,55.2,55.2,0,0,1-9.159-3.509c-1.364-.65-2.735-1.292-4.053-2.034-.949-.534-2.044-1.558-3.165-1.619-1.908-.105-1.562,1.7-.769,2.733a20.829,20.829,0,0,0,1.913,2.154,22.088,22.088,0,0,0,8.809,5.212A39.451,39.451,0,0,0,471.9,255.6" transform="translate(7599.783 13251.313)"></path><path d="M169.9,390.5c-.124.26-.248.52-.37.783-.368.791-.429,2.244.374,2.819,1.591,1.14,4.417-2.44,5.28-3.5a20.132,20.132,0,0,0,3.391-6.207,25.2,25.2,0,0,0,1.258-8.831c-.047-1.693.18-9.931-3.493-8.053-1.738.888-1.245,3.839-1.332,5.394a34.03,34.03,0,0,1-1.432,9.455A72.753,72.753,0,0,1,169.9,390.5" transform="translate(7466.124 13310.38)"></path><path d="M433.782,290.926a2.973,2.973,0,0,0-.695.207c-.961.417-1.521,1.24-.56,2.044,5.693,4.769,12.623,8.466,20.187,8.693a25.411,25.411,0,0,0,3.837-.179c1.052-.13,3-.174,2.782-1.74-.161-1.162-1.737-1.344-2.643-1.561-.94-.226-1.891-.411-2.843-.579-1.979-.352-3.973-.633-5.939-1.058a24.087,24.087,0,0,1-5.721-1.917c-2.342-1.174-5.607-4.384-8.405-3.91" transform="translate(7591.777 13273.868)"></path><path d="M452.485,293.3a7.055,7.055,0,0,0-1.7-.609,27.715,27.715,0,0,1-3.639-1.32,54.279,54.279,0,0,1-9.05-5.379c-1.384-.964-2.695-2.308-4.151-3.126-1.576-.885-2.5.714-1.756,1.976a21.812,21.812,0,0,0,8.47,7.935c3.342,1.814,7.546,3.7,11.446,2.924a1.3,1.3,0,0,0,.381-2.4" transform="translate(7591.729 13269.916)"></path><path d="M268.924,199.931a3.262,3.262,0,0,0-2.2,2.594,1.745,1.745,0,0,0,.411,1.453c1.523,1.466,4.322.417,6.084.072a86.432,86.432,0,0,1,11.416-1.54c1.92-.112,5.818-.182,6.092-2.786.424-4.019-4.866-2.216-6.968-1.916-2.634.375-5.289.838-7.945,1-2.288.142-4.757.177-6.89,1.122" transform="translate(7512.718 13229.044)"></path><path d="M330.386,269.423c-1.246,1.092.179,2.349,1.373,2.287,4.136-.213,8.178-1.322,12.324-1.415a27.446,27.446,0,0,1,12.173,2.781l.531.03a1.315,1.315,0,0,0,.884-2.319c-9.307-7.435-19.761-7.957-27.285-1.363" transform="translate(7542.939 13261.407)"></path><path d="M395.612,288.405a15.1,15.1,0,0,0-7.206-1.6c-1.317.047-5.106.229-5.116,2.186-.009,1.555,2.132,1.622,3.233,1.675,2.068.1,3.589.019,5.529.912a23.3,23.3,0,0,1,2.2,1.159,24.3,24.3,0,0,1,4.473,3.419c.788.761,1.443,2.149,2.535,2.557,2,.745,1.789-1.97,1.265-3.171a14.557,14.557,0,0,0-6.914-7.135" transform="translate(7568.47 13271.915)"></path><path d="M738.946,206.379c1.54-23.613-.4-36.283-5.759-37.658s-13.158,8.8-23.17,30.241c-7.653,16.388-15.353,37.018-18.725,50.169-.232.9-.451,1.765-.673,2.639a5.707,5.707,0,0,1-1.013.927c-7.233,5.05-12.516,12.278-16.149,22.1-4.359,11.786-8.506,23.944-12.051,34.417-1.264,3.731-2.492,7.474-3.722,11.217-6.2,18.884-12.618,38.413-23.4,55.825-5.891,9.517-10.464,19.847-14.886,29.835-2.714,6.13-5,12.421-7.422,19.081-.684,1.885-1.379,3.8-2.1,5.746-11.441-35.835-28.082-46.876-59.624-39.374a4.158,4.158,0,0,1-4.653-2.132c-8.547-16.553-22.915-26.784-41.8-29.689-19.177-2.949-35.219,4.226-48.934,21.931-.114-.645-.192-.974-.213-1.2-.192-2.157-.194-3.361-.2-5.016q-.1-21.513-.3-43.024c-.285-35.706-.581-72.629-.092-108.926.244-17.888,1.524-35.742,2.742-53.584.417-5.378.735-10.766,1.092-16.148.63-9.462,1.231-18.762.627-28.247-.423-6.646-.176-14.4-3.016-20.571-.253-.551-1.951-2.553-1.907-2.974,2.7-26.271,1.518-100.427-12.467-101.94A4.235,4.235,0,0,0,440.709,0C426.7,0,409.875,72.1,407.125,97.561c-.414,3.823-.806,7.486-1.122,10.958a49.373,49.373,0,0,0-10.257,22.136c-2.785,14.838-5.082,30.014-7.3,44.688q-.843,5.566-1.694,11.128c-4.785,31.139-10.346,72.285-10.883,114.42-.409,32.168-2.64,64.093-4.538,88.312-2.584,32.973-6.028,66.443-9.359,98.812l-1.087,10.568c-1.432,13.975-3.36,27.733-5.727,40.889-1.509,8.389-5.227,11.242-13.7,10.537-11.92-.989-23.946-1.576-35.644-4.241-17.091-3.894-33.665-10.207-50.23-15.848l-.043-.015c-11.107-3.78-22.592-7.688-33.992-11.218-25.362-7.851-46.456-9.113-66.39-3.973-14.216,3.666-29.248,7.848-40.661,17.563-2.5,2.127-4.735,4.6-7.629,6.211a19.367,19.367,0,0,1-9.588,2.435c-15.474-.4-32.811-.415-48.041.032C.532,542.387.158,547.332.018,549.193S-.5,556,47.436,564.738c24.408,4.448,54.571,8.547,73.352,9.966,11.916.9,22.031,1.666,30.259,1.666,6.611,0,11.978-.508,16.1-1.821a52.226,52.226,0,0,1,20.716,7.664c5.274,3.328,10.964,6.164,16.467,8.908,7.186,3.583,14.615,7.288,21.022,12.062a216.177,216.177,0,0,0,44.075,25.527c12.411,5.356,25.582,11.378,37.813,19.116,19.7,12.457,36.886,29.64,55.735,55.71,14.357,19.855,30.255,40.5,52.758,55.618,9.276,6.231,15.666,15.8,18.991,28.431,2.412,9.162,4.25,17.325,5.622,24.955,3.539,19.69,7.075,39.723,10.492,59.1,3.67,20.794,7.465,42.3,11.274,63.433,1.11,6.16,2.35,12.3,3.632,18.423.77,3.681,1.707,7.325,2.454,11.011.381,1.886.715,3.781.953,5.691.189,1.519.214,3.185,1.131,4.482a1.961,1.961,0,0,0,3.472-.393c.541-1.477.087-3.2-.123-4.707-.8-5.838-1.638-11.669-2.458-17.5q-1.612-11.443-3.231-22.886c-4.624-32.652-9.406-66.416-14.658-99.543-.5-3.169-.958-6.356-1.416-9.552-2.271-15.864-4.779-31.956-12.331-46.31-1.147-2.179-2.226-4.947,1.214-5.326a6.475,6.475,0,0,1,1.685.222,58.019,58.019,0,0,0,22.238-.219c7.773-1.759,13.815-5.715,19.819-10.8.692-.585,1.422-1.128,2.164-1.647,2.952-2.064,5.483-4.414,8.721-6.114,6.869-3.6,14.661-4.556,22.1-6.39,1.224-.3,2.708-.857,2.633-2.389-.052-1.047-.86-1.437-1.731-1.515a1.4,1.4,0,0,0-.16-.031c-12.865-.16-25.236,4.333-36.638,13.4-11.172,8.89-23.552,11.292-37.853,7.353-18.179-5.013-34.371-15.594-48.129-31.452-10.025-11.558-19.66-23.816-28.976-35.671q-5.772-7.342-11.582-14.654c-19.351-24.221-41.844-41.291-68.764-52.184-18-7.285-33.032-15.06-45.958-23.771-15.276-10.294-30.413-20.105-47.615-26.976l-2.157-.851a86.99,86.99,0,0,1-9.8-4.324,7.281,7.281,0,0,1-3.367-4.009c-.18-.82-.373-1.605-.574-2.368.077-.488.152-.977.192-1.5.593-7.842-3.6-12.622-13.592-15.5a104.961,104.961,0,0,0-17.776-3.045c-7.672-.832-15.366-1.536-23.085-1.66-1.551-.024-3.907.129-5.135-1.024-.9-.848,3.152-3.586,3.759-4a52.557,52.557,0,0,1,9.1-4.885c29.912-12.781,60.962-14.135,92.291-4.019q11.231,3.625,22.447,7.3c19.446,6.346,39.553,12.906,59.467,18.926,15.662,4.735,32.277,6.537,48.435,3.394a63.531,63.531,0,0,0,19.153-6.818A53.148,53.148,0,0,0,379,546.578c.715-.568,1.5-1.024,2.2-1.619,1.225-1.047,3-3.335.837-4.475-1.6-.844-3.913.414-5.339,1.135a86.423,86.423,0,0,1-14.46,5.441c.593-2.906,1.22-5.778,1.827-8.577,3.675-16.887,5.531-34.179,7.5-51.393,2.038-17.81,3.988-35.63,5.656-53.478q.849-9.093,1.594-18.2c3.039-37.393,5.064-74.378,7.212-115.385q.4-7.572.525-15.156c.058-3.648-.1-7.3-.006-10.943.149-5.669.507-11.335.7-17,.191-5.719.021-11.563.546-17.26,1.644-17.793,3.985-35.516,6.512-53.2,2.43-17.013,4.69-34.088,8.512-50.86q1.3-5.687,2.843-11.313c2.819-10.191,10.453-17.7,21.5-21.155,5.956-1.864,11.543-1.45,15.731,1.162,4.093,2.551,6.736,7.022,7.645,12.924,1.314,8.547.408,17.311-.174,25.884-.613,9-1.341,18-2.047,27q-.39,4.991-.766,9.985c-.915,12.135-1.709,24.286-2.132,36.448-.622,17.922-.915,35.856-1.067,53.788q-.118,14.009-.149,28.018c-.034,10.562-.4,21.118.1,31.675.244,5.1.053,10.21.278,15.311.461,10.472.148,20.989.9,31.445.748,10.435.831,20.537-3.058,30.445-4.677,11.914-4.69,25.04,3.9,35.177a7.523,7.523,0,0,1,1.821,2.681,3.143,3.143,0,0,1,.086,1q-.04,1.064-.077,2.13c-.293,7.762-.572,15.526-.893,23.286-.069,1.673-.143,3.345-.213,5.017-.145,3.5.529,7.283-.757,10.643a2.423,2.423,0,0,1-1.6,1.6c-2.339.554-5.288-1.057-7.569-1.582-14.8-3.4-30.643-1.932-44.914-7.676-1.01-.406-2.046-.738-3.073-1.1-1.128-.395-2.528-.979-3.664-.5-1.063.448-1.418,1.489-.309,2.149,6.1,3.629,12.491,7.079,19.462,8.661a122.547,122.547,0,0,0,13.672,1.891,97.145,97.145,0,0,1,13.41,2.548c2.5.636,5.045,1.1,7.52,1.84,2.5.744,5.626,1.727,6.784,4.309,1.243,2.775.4,6.373.095,9.271-.374,3.571-.807,7.137-1.264,10.7-.9,7.036-1.9,14.061-2.718,21.108-.99,8.476-2.013,17.242-3.092,25.851-1.157,9.248-1.515,20.941,4.922,31.825q-.572,2.871-1.163,5.922c-3.022,15.5-5.228,41.019-5.367,62.059-.18,27.424,2.875,41.943,9.084,43.152a4.1,4.1,0,0,0,.8.077c14.324,0,37.461-71.57,42.24-96.6l1.324-1.746a16.317,16.317,0,0,0,3.654-2.512,17.664,17.664,0,0,0,1.758-1.778c-4.279,13.5-8.8,33.712-11.307,50.805-3.558,24.275-2.621,37.528,2.786,39.387a4.121,4.121,0,0,0,1.353.222c5.486,0,13.91-9.923,25.08-29.554,9.283-16.312,18.969-37.012,23.554-50.335.68-1.973,1.332-3.874,1.956-5.716,1.092-.782,2.2-1.551,3.305-2.3,4.013-2.721,8.164-5.534,10.995-9.372,6.281-8.512,11.635-17.882,16.813-26.945q1.652-2.891,3.313-5.774l.256-.442c3.557-6.154,5.342-9.243,7.744-10.29,2.433-1.061,6.257-.253,13.195,1.215,15.212,3.215,30.4,3.221,39.637.016a1.3,1.3,0,0,0-.615-2.52,73.843,73.843,0,0,1-24.983-1.051c-4.167-.834-8.284-1.913-12.367-3.091-2.081-.6-4.155-1.23-6.228-1.868-1.713-.529-6.03-.84-6.661-2.943-.546-1.818.692-3.84,1.236-5.531,2.436-7.57,3.945-15.509,6.083-23.176,2.169-7.781,4.562-15.509,7.472-23.05a138.72,138.72,0,0,1,11-22.62c1.894-3.091,5.026-9.119,4.711-14.744-.5-8.921,1.208-17.85,5.375-28.1,1.835-4.509,3.475-9.2,5.063-13.74,3.183-9.1,6.473-18.509,11.413-26.652,12.538-20.668,22.719-43.594,31.124-70.087q.969-3.053,1.931-6.115c4.624-14.68,9.406-29.86,15.68-44.052,3.1-7.02,8.127-11.285,14.148-12.011,6.442-.773,13.1,2.63,18.256,9.338,7.283,9.465,9.025,20.728,5.481,35.445-1.021,4.242-2.319,8.517-3.576,12.652a171.27,171.27,0,0,0-4.541,17.048c-9.215,47.585-25.156,97.718-48.736,153.266-1.812,4.272-3.626,10.445-7.666,13.239-3.929,2.717-9.817.628-13.9-.488-4.229-1.156-8.429-2.435-12.733-3.289a5.222,5.222,0,0,0-3.088.028c-3.234,1.5,2.5,4.056,3.558,4.486,1.329.544,2.671,1.058,4.016,1.56,5.41,2.013,10.874,4.433,16.45,5.931,3.165.851,4.627,2.3,3.928,5.664-.99,4.767-.816,9.7-1.017,14.54s-.41,9.673-.621,14.51c-.882,20.3-1.8,41.3-1.889,61.969-.2,44.453-8.515,87.224-20.952,137.674-2.857,11.591-15.24,15.959-25.294,19.419a191.2,191.2,0,0,1-43.692,9.722c-3.854.378-7.694.809-11.561,1.045a11.222,11.222,0,0,0-3.33.575,3.715,3.715,0,0,0-2.327,2.336c-2.027,6.522,9.286,4.927,12.427,4.751a169.917,169.917,0,0,0,23.418-2.883c15.2-3,31.325-5.795,44.582-14.333,2.142-1.379,5.322-4.637,8.118-4.51,2.584.118,3.738,3.274,4.3,5.361a106.748,106.748,0,0,1,2.441,12.838,47.342,47.342,0,0,0,.943,4.823c1.342,5.441,2.761,10.7,3.23,16.3.529,6.331.893,12.621.971,18.974.123,9.929,1.663,19.746,3.286,29.52.664,3.991,1.462,7.959,2.132,11.948A360.023,360.023,0,0,0,664.334,906.9c1.157,3.577,2.266,7.166,3.288,10.784.435,1.536,1,3.43,2.76,3.871,1.8.454,2.724-1.29,2.693-2.834-.078-3.781-1.184-7.435-2.1-11.076-2-7.969-3.75-15.974-5.527-23.994-1.4-6.309-2.77-12.621-3.984-18.967a358.2,358.2,0,0,1-6.479-52.177,217.089,217.089,0,0,0-1.558-21.912c-1.116-7.725-3.388-15.227-4.642-22.929-2.823-17.335-2.41-35.055-.328-52.447.563-4.708,1.271-9.394,2.05-14.071.853-5.01,1.792-10.105,2.7-15.034,2.677-14.559,5.447-29.612,6.455-44.568,1.7-25.173,2.244-50.833,2.773-75.648q.25-11.814.538-23.625l.078-3.186c.39-15.876,1.265-31.22,8.062-45.832,6.736-14.482,12.8-29.273,18.3-44.267s10.439-30.163,14.986-45.458c4.661-15.682,8.911-31.483,12.93-47.341,4.176-16.472,8.105-33.006,11.968-49.553l.652-2.8c1.645-7.063,3.174-14.961,2.047-22.781a36.839,36.839,0,0,0-3.271-12.192c.82-2.988,1.639-6.173,2.491-9.5,3.372-13.153,6.549-34.944,7.725-52.991M485.529,593.959a2.2,2.2,0,0,1-3.416.881,2.3,2.3,0,0,1-.121-1.83c.656-3.735,1.243-7.83.587-11.6a13.874,13.874,0,0,0-6.395-9.147,1.1,1.1,0,0,1,.732-2c4.649.526,8.012,2.646,9.725,6.13a14.8,14.8,0,0,1,.9,9.258c-.356,1.88-.473,2.831-.956,4.681a21.581,21.581,0,0,1-1.056,3.628m12.139-7.631c-.962,4.417-2.248,8.988-5.673,13.082,1.234-7.382,1.9-13.666,1.336-18.806,0-.05-.015-.1-.019-.151-.053-.46-.111-.915-.183-1.357-1.471-8.949-7.067-13.9-18.147-16.062s-18.126.329-22.85,8.073a49.517,49.517,0,0,0-4.952,12.611,47.849,47.849,0,0,1-.018-13.294c.716-6.281,1.743-12.652,2.736-18.815,1.3-8.074,2.647-16.423,3.32-24.716,1.126-13.875,1.41-28.031,1.685-41.723q.1-5.206.222-10.413l.109-4.7c.516-22.451,1.048-45.665,6.05-68.059,0-.052,0-.1,0-.157-.043-1.023-.327-2.34-1.379-2.8-.99-.432-2.068.313-2.646,1.076a7.628,7.628,0,0,0-.779,1.341q-2.743,11.6-5.487,23.192-.581,2.457-1.162,4.911c-.164.693-.636,4.469-1.66,3.607-.572-.48-.568-1.419-.673-2.114a44,44,0,0,1,.522-13.341c2.177-13.431,8.96-26.958,19.078-36.1a55.678,55.678,0,0,1,5.6-4.436c18.556-12.859,42.582-10.843,57.952,5.186,7.1,7.4,10.534,20.28,8.813,29.171-1.605,8.3-2.16,10.178-3.92,17.569-5.91,24.822-11.719,48.947-17.536,73.3-4.788,20.051-10.893,39.9-15.133,59.72q-2.59,12.1-5.209,24.2m33.764,22.1c-1.308-.009-2.3-1.4-1.83-3.2.262-1.008.537-2.012.812-3.008,2.377-8.633,4.429-16.089-3.928-23.523a1.3,1.3,0,0,1,1.19-2.234c5.378,1.384,8.982,4.429,10.423,8.806,1.255,3.812.665,7.987-.7,11.682-.851,2.309-.683,1.849-2.437,6.588-.4,1.073-.551,1.63-1.19,3.089-.826,1.886-1.833,1.8-2.341,1.795M603.38,466.583c-9.576,17.206-15.187,36.04-20.612,54.255-1.806,6.061-3.673,12.327-5.657,18.435-7.285,22.426-17.641,42.218-30.782,58.826a22.8,22.8,0,0,1-3.493,3.409c1.523-5.347,2.445-9.991,2.349-13.96a15.653,15.653,0,0,0-5.545-12.053c-5.4-4.463-14.72-8.383-21.764-5.993a18.669,18.669,0,0,0-8.161,5.841,31.046,31.046,0,0,0-2.958,4.413c.084-.447.155-.9.259-1.336q8.7-36.732,17.443-73.456,8.253-34.712,16.488-69.429c.871-3.676,1.678-7.428,2.458-11.054,1.295-6.016,2.634-12.238,4.293-18.244a10.56,10.56,0,0,1,5.082-6.087c9.462-3.9,19.334-3.939,27.8-.1,8.395,3.8,14.819,11.18,18.09,20.766a173.643,173.643,0,0,1,7.257,30.877,25.114,25.114,0,0,1-2.543,14.9m108.5-259.654.01-.037.018.013-.028.024M158.291,567.9c.815.023,3.212,0,5.224-.055a.841.841,0,0,1,.615,1.427,7.661,7.661,0,0,1-5.425,2.17c-7.5.378-15.246-.418-22.759-.624a197.509,197.509,0,0,1-28.873-2.662,1.306,1.306,0,0,1-.72-2.213c3.959-3.432,27.72,1.267,51.937,1.957" transform="translate(7385.173 13134.765)"></path><path d="M263.219,278.595a1.606,1.606,0,0,0-.343,1.041c.231,3.486,5.6-.341,6.73-.9,1-.5,1.947-1.058,2.909-1.62a69.85,69.85,0,0,1,18.29-7.577c1.729-.432,3.489-.727,5.24-1.058,1.56-.3,3.239-.306,4.763-.68,1.067-.263,2.3-.992,2.251-2.244-.111-2.741-5.92-1.554-7.468-1.462a54.585,54.585,0,0,0-10.538,1.6,46.556,46.556,0,0,0-11.79,4.912c-3.449,2.037-7.69,4.671-10.044,7.991" transform="translate(7510.884 13260.897)"></path><path d="M292.384,205.794c-2-.928-4.683-.557-6.806-.4-2.313.173-4.634.228-6.954.248q-1.488.011-2.976.013c-1.511,0-4.461.4-3.929,2.65.679,2.881,4.982,1.877,6.986,1.747,4.059-.263,8.117-.4,12.154-.933,1.05-.136,2.506-.84,2.491-2.075a1.408,1.408,0,0,0-.967-1.252" transform="translate(7515.084 13232.889)"></path><path d="M300.8,144.3c.111.021.223.034.336.056A.81.81,0,0,0,302,144a1.693,1.693,0,0,0,1.052-1.419,2.161,2.161,0,0,0-1.338-1.864,13.036,13.036,0,0,0-4.142-1.379,27.413,27.413,0,0,0-24.13,3.818c-1.5.786-4.912,3.236-2.064,4.625a3.036,3.036,0,0,0,2.627-.29c.2-.089.39-.179.579-.262.714-.313,1.443-.6,2.173-.871,1.036-.39,2.083-.754,3.146-1.066a44.611,44.611,0,0,1,16.94-1.551c1.326.132,2.647.312,3.96.562" transform="translate(7514.426 13200.793)"></path><path d="M482.645,139.2h0a.242.242,0,0,1,.034-.018.249.249,0,0,0-.046.021h.009" transform="translate(7615.979 13201.325)"></path><path d="M383.47,371.8a3.13,3.13,0,0,0-1.189-.557c-3.877-.979-7.934-1.1-11.88-1.657-1.722-.242-4.925-1.484-6.362.037-1.922,2.035.915,3.664,2.568,4.155,3.88,1.153,7.976,1.143,11.945,1.8.856.142,1.718.322,2.58.423,2.68.31,4.152-2.766,2.339-4.2" transform="translate(7558.956 13311.172)"></path><path d="M345.475,358.77c-1.243-.812-2.956-.613-4.367-.7a22.514,22.514,0,0,1-4.874-.962,56.647,56.647,0,0,1-10.259-4.274c-1.282-.664-2.551-1.356-3.812-2.059-1.05-.584-3.891-1.46-3.422.786.37,1.767,2.916,3.008,4.284,3.908a37.109,37.109,0,0,0,6.43,3.6,34.494,34.494,0,0,0,12.473,2.191,8.481,8.481,0,0,0,3.128-.239,1.324,1.324,0,0,0,.851-1.753,1.177,1.177,0,0,0-.433-.5" transform="translate(7537.577 13302.192)"></path><path d="M303.006,292.853c-.081-.127-.038-.049,0,0" transform="translate(7530.055 13274.78)"></path></g></g></svg><style>@media (prefers-color-scheme: light) { :root { filter: none; } }
@media (prefers-color-scheme: dark) { :root { filter: none; } }
</style></svg>